<?xml version="1.0" standalone="no"?>
<!DOCTYPE svg PUBLIC "-//W3C//DTD SVG 1.1//EN" "http://www.w3.org/Graphics/SVG/1.1/DTD/svg11.dtd" >
<svg xmlns="http://www.w3.org/2000/svg" xmlns:xlink="http://www.w3.org/1999/xlink" version="1.1">
<metadata>
Created by FontForge 20170924 at Wed Dec 16 01:09:00 2020
 By www-data
Copyright (c) 2014 by Jeff Schreiber. All rights reserved.
</metadata>
<defs>
<font id="FatFrank-Heavy" horiz-adv-x="600" >
  <font-face 
    font-family="FatFrank Heavy"
    font-weight="900"
    font-stretch="normal"
    units-per-em="1000"
    panose-1="0 0 10 0 0 0 0 0 0 0"
    ascent="725"
    descent="-275"
    x-height="550"
    cap-height="690"
    bbox="-174.585 -232 975.865 904.409"
    underline-thickness="50"
    underline-position="-100"
    unicode-range="U+0020-20AC"
  />
<missing-glyph horiz-adv-x="500" 
d="M0 0v700h500v-700h-500zM250 395l170 255h-340zM280 350l170 -255v510zM80 50h340l-170 255zM50 605v-510l170 255z" />
    <glyph glyph-name="f_f" unicode="ff" horiz-adv-x="655" 
d="M575 549h65c9 0 15 -6 15 -14l-11 -97c-1 -8 -7 -15 -15 -15h-54v-408c0 -9 -5 -14 -14 -14h-178c-9 0 -14 5 -14 14v408h-115v-408c0 -9 -5 -14 -14 -14h-178c-9 0 -14 5 -14 14v408h-57c-7 0 -14 6 -14 14v97c0 9 7 15 14 15h57c0 119 64 176 163 176h108
c9 0 14 -5 14 -14v-97c0 -9 -5 -15 -14 -15c-43 0 -65 -15 -65 -50h115c0 119 64 176 163 176h108c9 0 14 -5 14 -14v-97c0 -9 -5 -15 -14 -15c-43 0 -65 -15 -65 -50z" />
    <glyph glyph-name=".notdef" horiz-adv-x="500" 
d="M0 0v700h500v-700h-500zM250 395l170 255h-340zM280 350l170 -255v510zM80 50h340l-170 255zM50 605v-510l170 255z" />
    <glyph glyph-name="A" unicode="A" horiz-adv-x="672" 
d="M462 677l226 -664c3 -6 -1 -13 -9 -13h-198c-9 0 -17 5 -21 13l-30 105h-188l-30 -105c-4 -8 -12 -13 -21 -13h-198c-8 0 -12 7 -9 13l226 664c3 6 14 13 24 13h204c10 0 21 -7 24 -13zM390 261l-54 190l-54 -190h108z" />
    <glyph glyph-name="Aacute" unicode="&#xc1;" horiz-adv-x="672" 
d="M234 733l-19 41c-5 8 -3 17 4 22l180 106c6 5 16 2 20 -7l39 -73c4 -8 2 -16 -8 -20l-195 -80c-7 -4 -17 1 -21 11zM462 677l226 -664c3 -6 -1 -13 -9 -13h-198c-9 0 -17 5 -21 13l-30 105h-188l-30 -105c-4 -8 -12 -13 -21 -13h-198c-8 0 -12 7 -9 13l226 664
c3 6 14 13 24 13h204c10 0 21 -7 24 -13zM390 261l-54 190l-54 -190h108z" />
    <glyph glyph-name="Acircumflex" unicode="&#xc2;" horiz-adv-x="672" 
d="M190 731l-17 43c-4 7 0 17 7 20l142 82c8 4 20 4 27 0l142 -82c7 -3 11 -13 8 -20l-18 -43c-3 -7 -12 -11 -19 -9l-126 43l-127 -43c-7 -2 -16 2 -19 9zM462 677l226 -664c3 -6 -1 -13 -9 -13h-198c-9 0 -17 5 -21 13l-30 105h-188l-30 -105c-4 -8 -12 -13 -21 -13h-198
c-8 0 -12 7 -9 13l226 664c3 6 14 13 24 13h204c10 0 21 -7 24 -13zM390 261l-54 190l-54 -190h108z" />
    <glyph glyph-name="Adieresis" unicode="&#xc4;" horiz-adv-x="672" 
d="M233 723c-45 0 -75 30 -75 74c0 46 30 76 75 76c44 0 75 -30 75 -76c0 -44 -31 -74 -75 -74zM438 723c-45 0 -75 30 -75 74c0 46 30 76 75 76c44 0 75 -30 75 -76c0 -44 -31 -74 -75 -74zM462 677l226 -664c3 -6 -1 -13 -9 -13h-198c-9 0 -17 5 -21 13l-30 105h-188
l-30 -105c-4 -8 -12 -13 -21 -13h-198c-8 0 -12 7 -9 13l226 664c3 6 14 13 24 13h204c10 0 21 -7 24 -13zM390 261l-54 190l-54 -190h108z" />
    <glyph glyph-name="Agrave" unicode="&#xc0;" horiz-adv-x="672" 
d="M417 722l-195 80c-10 4 -12 12 -8 20l39 73c4 9 14 12 20 7l180 -106c7 -5 9 -14 4 -22l-19 -41c-4 -10 -14 -15 -21 -11zM462 677l226 -664c3 -6 -1 -13 -9 -13h-198c-9 0 -17 5 -21 13l-30 105h-188l-30 -105c-4 -8 -12 -13 -21 -13h-198c-8 0 -12 7 -9 13l226 664
c3 6 14 13 24 13h204c10 0 21 -7 24 -13zM390 261l-54 190l-54 -190h108z" />
    <glyph glyph-name="Aring" unicode="&#xc5;" horiz-adv-x="672" 
d="M462 677l226 -664c3 -6 -1 -13 -9 -13h-198c-9 0 -17 5 -21 13l-30 105h-188l-30 -105c-4 -8 -12 -13 -21 -13h-198c-8 0 -12 7 -9 13l226 664c3 6 14 13 24 13h83c-42 9 -74 46 -74 90c0 52 42 94 93 94s93 -42 93 -94c0 -44 -32 -81 -74 -90h83c10 0 21 -7 24 -13z
M299 780c0 -19 16 -35 37 -35c20 0 38 16 38 35c0 21 -18 37 -38 37c-21 0 -37 -16 -37 -37zM390 261l-54 190l-54 -190h108z" />
    <glyph glyph-name="AE" unicode="&#xc6;" horiz-adv-x="815" 
d="M542 180h238c8 0 15 -6 15 -14v-151c0 -7 -7 -15 -15 -15h-430c-7 0 -14 8 -14 15v103h-109l-32 -105c-4 -8 -12 -13 -21 -13h-181c-8 0 -12 7 -9 13l218 664c3 6 12 13 21 13h545c9 0 16 -7 16 -14v-151c0 -9 -7 -15 -16 -15h-226v-79h177c9 0 14 -7 13 -13l-14 -140
c-1 -6 -8 -13 -17 -13h-159v-85zM335 486l-67 -225h67v225z" />
    <glyph glyph-name="B" unicode="B" horiz-adv-x="605" 
d="M50 690h301c131 0 218 -78 218 -195c0 -72 -35 -125 -89 -141c63 -16 104 -76 104 -159c0 -117 -87 -195 -217 -195h-317c-8 0 -14 7 -14 14v661c0 7 6 15 14 15zM242 419h63c30 0 50 18 50 46s-20 46 -50 46h-63v-92zM242 179h81c29 0 49 19 49 48s-20 48 -49 48h-81
v-96z" />
    <glyph glyph-name="C" unicode="C" horiz-adv-x="604" 
d="M517 200l66 -139c3 -7 -1 -14 -9 -18c-58 -36 -136 -58 -210 -58c-206 0 -344 144 -344 360s138 360 344 360c74 0 152 -22 210 -58c8 -4 12 -11 9 -18l-66 -139c-4 -9 -11 -12 -19 -8c-37 21 -73 28 -116 28c-90 0 -150 -66 -150 -165s60 -165 150 -165
c43 0 79 7 116 28c8 4 15 1 19 -8z" />
    <glyph glyph-name="Ccedilla" unicode="&#xc7;" horiz-adv-x="604" 
d="M517 200l66 -139c3 -7 -1 -14 -9 -18c-58 -36 -136 -58 -210 -58c-206 0 -344 144 -344 360s138 360 344 360c74 0 152 -22 210 -58c8 -4 12 -11 9 -18l-66 -139c-4 -9 -11 -12 -19 -8c-37 21 -73 28 -116 28c-90 0 -150 -66 -150 -165s60 -165 150 -165
c43 0 79 7 116 28c8 4 15 1 19 -8zM320 -184l92 123c9 11 4 19 -10 19h-66c-9 0 -14 -2 -20 -6l-92 -73c-9 -7 -8 -15 2 -22l73 -45c7 -5 15 -3 21 4z" />
    <glyph glyph-name="D" unicode="D" horiz-adv-x="655" 
d="M50 690h232c212 0 353 -137 353 -345c0 -206 -141 -345 -353 -345h-232c-7 0 -14 7 -14 15v660c0 8 7 15 14 15zM242 180h52c77 0 129 66 129 165s-52 165 -129 165h-52v-330z" />
    <glyph glyph-name="Eth" unicode="&#xd0;" horiz-adv-x="730" 
d="M50 690h232c212 0 353 -137 353 -345c0 -206 -141 -345 -353 -345h-232c-7 0 -14 7 -14 15v287h-37c-7 0 -14 6 -14 15v62c0 8 7 14 14 14h37v282c0 8 7 15 14 15zM242 180h52c77 0 129 66 129 165s-52 165 -129 165h-52v-117h27c8 0 15 -6 15 -14v-62
c0 -9 -7 -15 -15 -15h-27v-122z" />
    <glyph glyph-name="E" unicode="E" horiz-adv-x="550" 
d="M242 180h273c8 0 15 -6 15 -13v-153c0 -7 -7 -14 -15 -14h-465c-7 0 -14 8 -16 15v661c0 9 5 14 14 14h455c9 0 16 -7 16 -14v-151c0 -9 -7 -15 -16 -15h-261v-79h212c9 0 14 -7 13 -13l-14 -140c-1 -6 -8 -13 -17 -13h-194v-85z" />
    <glyph glyph-name="Eacute" unicode="&#xc9;" horiz-adv-x="550" 
d="M170 733l-19 41c-5 8 -3 17 4 22l180 106c6 5 16 2 20 -7l39 -73c4 -8 2 -16 -8 -20l-195 -80c-7 -4 -17 1 -21 11zM242 180h273c8 0 15 -6 15 -13v-153c0 -7 -7 -14 -15 -14h-465c-7 0 -14 8 -16 15v661c0 9 5 14 14 14h455c9 0 16 -7 16 -14v-151c0 -9 -7 -15 -16 -15
h-261v-79h212c9 0 14 -7 13 -13l-14 -140c-1 -6 -8 -13 -17 -13h-194v-85z" />
    <glyph glyph-name="Ecircumflex" unicode="&#xca;" horiz-adv-x="550" 
d="M126 721l-17 43c-4 7 0 17 7 20l142 82c8 4 20 4 27 0l142 -82c7 -3 11 -13 8 -20l-18 -43c-3 -7 -12 -11 -19 -9l-126 43l-127 -43c-7 -2 -16 2 -19 9zM242 180h273c8 0 15 -6 15 -13v-153c0 -7 -7 -14 -15 -14h-465c-7 0 -14 8 -16 15v661c0 9 5 14 14 14h455
c9 0 16 -7 16 -14v-151c0 -9 -7 -15 -16 -15h-261v-79h212c9 0 14 -7 13 -13l-14 -140c-1 -6 -8 -13 -17 -13h-194v-85z" />
    <glyph glyph-name="Edieresis" unicode="&#xcb;" horiz-adv-x="550" 
d="M171 708c-45 0 -75 30 -75 74c0 46 30 76 75 76c44 0 75 -30 75 -76c0 -44 -31 -74 -75 -74zM374 708c-45 0 -75 30 -75 74c0 46 30 76 75 76c44 0 75 -30 75 -76c0 -44 -31 -74 -75 -74zM242 180h273c8 0 15 -6 15 -13v-153c0 -7 -7 -14 -15 -14h-465c-7 0 -14 8 -16 15
v661c0 9 5 14 14 14h455c9 0 16 -7 16 -14v-151c0 -9 -7 -15 -16 -15h-261v-79h212c9 0 14 -7 13 -13l-14 -140c-1 -6 -8 -13 -17 -13h-194v-85z" />
    <glyph glyph-name="Egrave" unicode="&#xc8;" horiz-adv-x="550" 
d="M353 722l-195 80c-10 4 -12 12 -8 20l39 73c4 9 14 12 20 7l180 -106c7 -5 9 -14 4 -22l-19 -41c-4 -10 -14 -15 -21 -11zM242 180h273c8 0 15 -6 15 -13v-153c0 -7 -7 -14 -15 -14h-465c-7 0 -14 8 -16 15v661c0 9 5 14 14 14h455c9 0 16 -7 16 -14v-151
c0 -9 -7 -15 -16 -15h-261v-79h212c9 0 14 -7 13 -13l-14 -140c-1 -6 -8 -13 -17 -13h-194v-85z" />
    <glyph glyph-name="F" unicode="F" horiz-adv-x="517" 
d="M50 690h446c9 0 15 -7 15 -14v-151c0 -9 -6 -15 -15 -15h-254v-91h201c9 0 14 -7 13 -13l-14 -140c-1 -6 -8 -13 -17 -13h-183v-239c0 -7 -7 -14 -15 -14h-177c-8 0 -14 8 -14 15v661c0 7 6 14 14 14z" />
    <glyph glyph-name="G" unicode="G" horiz-adv-x="670" 
d="M354 423h271c8 0 15 -7 15 -14v-318c0 -9 -5 -18 -12 -24c-60 -51 -152 -81 -248 -81c-216 0 -360 144 -360 360s144 360 360 360c74 0 152 -22 210 -58c8 -4 11 -12 9 -18l-50 -147c-3 -7 -10 -10 -19 -8c-41 22 -94 35 -144 35c-92 0 -154 -66 -154 -164
c0 -100 62 -166 154 -166c37 0 62 7 73 19v58h-92c-9 0 -15 4 -16 11l-13 138c-1 10 5 17 16 17zM465 210v4v-4z" />
    <glyph glyph-name="H" unicode="H" horiz-adv-x="644" 
d="M406 690h187c9 0 15 -7 15 -15v-661c0 -7 -6 -14 -15 -14h-187c-8 0 -14 7 -14 14v224h-140v-224c0 -7 -6 -14 -15 -14h-187c-7 0 -14 7 -14 14v661c0 8 7 15 14 15h187c9 0 15 -7 15 -15v-261h140v261c0 8 6 15 14 15z" />
    <glyph glyph-name="I" unicode="I" horiz-adv-x="278" 
d="M50 690h177c9 0 15 -7 15 -15v-661c0 -7 -6 -14 -15 -14h-177c-7 0 -14 7 -14 14v661c0 8 7 15 14 15z" />
    <glyph glyph-name="Iacute" unicode="&#xcd;" horiz-adv-x="278" 
d="M37 733l-19 41c-5 8 -3 17 4 22l180 106c6 5 16 2 20 -7l39 -73c4 -8 2 -16 -8 -20l-195 -80c-7 -4 -17 1 -21 11zM50 690h177c9 0 15 -7 15 -15v-661c0 -7 -6 -14 -15 -14h-177c-7 0 -14 7 -14 14v661c0 8 7 15 14 15z" />
    <glyph glyph-name="Icircumflex" unicode="&#xce;" horiz-adv-x="278" 
d="M-17 784l142 82c8 4 20 4 27 0l142 -82c7 -3 11 -13 8 -20l-18 -43c-3 -7 -12 -11 -19 -9l-126 43l-127 -43c-7 -2 -16 2 -19 9l-17 43c-4 7 0 17 7 20zM50 690h177c9 0 15 -7 15 -15v-661c0 -7 -6 -14 -15 -14h-177c-7 0 -14 7 -14 14v661c0 8 7 15 14 15z" />
    <glyph glyph-name="Idieresis" unicode="&#xcf;" horiz-adv-x="278" 
d="M38 708c44 0 75 30 75 74c0 46 -31 76 -75 76c-45 0 -75 -30 -75 -76c0 -44 30 -74 75 -74zM241 708c44 0 75 30 75 74c0 46 -31 76 -75 76c-45 0 -75 -30 -75 -76c0 -44 30 -74 75 -74zM50 690h177c9 0 15 -7 15 -15v-661c0 -7 -6 -14 -15 -14h-177c-7 0 -14 7 -14 14
v661c0 8 7 15 14 15z" />
    <glyph glyph-name="Igrave" unicode="&#xcc;" horiz-adv-x="278" 
d="M260 774l-19 -41c-4 -10 -14 -15 -21 -11l-195 80c-10 4 -12 12 -8 20l39 73c4 9 14 12 20 7l180 -106c7 -5 9 -14 4 -22zM50 690h177c9 0 15 -7 15 -15v-661c0 -7 -6 -14 -15 -14h-177c-7 0 -14 7 -14 14v661c0 8 7 15 14 15z" />
    <glyph glyph-name="J" unicode="J" horiz-adv-x="452" 
d="M241 690h176c9 0 15 -6 12 -15v-461c0 -144 -89 -229 -239 -229c-64 0 -131 20 -167 50c-6 5 -9 11 -7 18l49 137c3 9 12 9 19 4c19 -15 44 -25 75 -25c38 0 63 26 67 66v440c0 9 6 15 15 15z" />
    <glyph glyph-name="K" unicode="K" horiz-adv-x="628" 
d="M413 361l213 -349c5 -7 1 -12 -7 -12h-232c-7 0 -17 5 -21 12l-124 250v-248c0 -7 -6 -14 -15 -14h-177c-7 0 -14 7 -14 14v661c0 8 7 15 14 15h177c9 0 15 -7 15 -15v-224l120 227c4 7 14 12 23 12h219c8 0 11 -5 7 -12z" />
    <glyph glyph-name="L" unicode="L" horiz-adv-x="448" 
d="M243 180h186c7 0 13 -6 13 -14l-14 -152c-1 -7 -8 -14 -16 -14h-361c-8 0 -15 7 -15 14v661c0 8 7 15 15 15h177c8 0 15 -7 15 -15v-495z" />
    <glyph glyph-name="M" unicode="M" horiz-adv-x="862" 
d="M603 690h209c8 0 14 -7 14 -15v-661c0 -7 -6 -14 -14 -14h-185c-8 0 -15 7 -15 14v294l-101 -293c-3 -8 -16 -15 -25 -15h-110c-9 0 -22 7 -25 15l-101 293v-294c0 -7 -7 -14 -15 -14h-185c-8 0 -14 7 -14 14v661c0 8 6 15 14 15h209c13 0 28 -9 34 -20l138 -382l138 382
c6 11 21 20 34 20z" />
    <glyph glyph-name="N" unicode="N" horiz-adv-x="661" 
d="M433 690h177c9 0 15 -7 15 -15v-661c0 -7 -6 -14 -15 -14h-173c-7 0 -16 5 -21 13l-174 311v-310c0 -7 -6 -14 -15 -14h-177c-8 0 -14 7 -14 14v661c0 8 6 15 14 15h173c9 0 19 -5 23 -13l173 -311v309c0 8 7 15 14 15z" />
    <glyph glyph-name="Ntilde" unicode="&#xd1;" horiz-adv-x="661" 
d="M221 736c-6 3 -8 8 -8 14v72c0 11 5 13 15 9c70 -32 146 54 217 13c6 -3 8 -8 8 -14v-72c0 -11 -5 -13 -15 -9c-70 33 -146 -53 -217 -13zM433 690h177c9 0 15 -7 15 -15v-661c0 -7 -6 -14 -15 -14h-173c-7 0 -16 5 -21 13l-174 311v-310c0 -7 -6 -14 -15 -14h-177
c-8 0 -14 7 -14 14v661c0 8 6 15 14 15h173c9 0 19 -5 23 -13l173 -311v309c0 8 7 15 14 15z" />
    <glyph glyph-name="O" unicode="O" horiz-adv-x="763" 
d="M381 -14c213 0 355 144 355 359c0 217 -142 361 -355 361s-355 -144 -355 -361c0 -215 142 -359 355 -359zM381 504c82 0 137 -64 137 -159s-55 -159 -137 -159s-137 64 -137 159s55 159 137 159z" />
    <glyph glyph-name="Oacute" unicode="&#xd3;" horiz-adv-x="763" 
d="M279 733l-19 41c-5 8 -3 17 4 22l180 106c6 5 16 2 20 -7l39 -73c4 -8 2 -16 -8 -20l-195 -80c-7 -4 -17 1 -21 11zM381 -14c213 0 355 144 355 359c0 217 -142 361 -355 361s-355 -144 -355 -361c0 -215 142 -359 355 -359zM381 504c82 0 137 -64 137 -159
s-55 -159 -137 -159s-137 64 -137 159s55 159 137 159z" />
    <glyph glyph-name="Ocircumflex" unicode="&#xd4;" horiz-adv-x="763" 
d="M225 784l142 82c8 4 20 4 27 0l142 -82c7 -3 11 -13 8 -20l-18 -43c-3 -7 -12 -11 -19 -9l-126 43l-127 -43c-7 -2 -16 2 -19 9l-17 43c-4 7 0 17 7 20zM381 -14c213 0 355 144 355 359c0 217 -142 361 -355 361s-355 -144 -355 -361c0 -215 142 -359 355 -359zM381 504
c82 0 137 -64 137 -159s-55 -159 -137 -159s-137 64 -137 159s55 159 137 159z" />
    <glyph glyph-name="Odieresis" unicode="&#xd6;" horiz-adv-x="763" 
d="M280 708c44 0 75 30 75 74c0 46 -31 76 -75 76c-45 0 -75 -30 -75 -76c0 -44 30 -74 75 -74zM483 708c44 0 75 30 75 74c0 46 -31 76 -75 76c-45 0 -75 -30 -75 -76c0 -44 30 -74 75 -74zM381 -14c213 0 355 144 355 359c0 217 -142 361 -355 361s-355 -144 -355 -361
c0 -215 142 -359 355 -359zM381 504c82 0 137 -64 137 -159s-55 -159 -137 -159s-137 64 -137 159s55 159 137 159z" />
    <glyph glyph-name="Ograve" unicode="&#xd2;" horiz-adv-x="763" 
d="M502 774l-19 -41c-4 -10 -14 -15 -21 -11l-195 80c-10 4 -12 12 -8 20l39 73c4 9 14 12 20 7l180 -106c7 -5 9 -14 4 -22zM381 -14c213 0 355 144 355 359c0 217 -142 361 -355 361s-355 -144 -355 -361c0 -215 142 -359 355 -359zM381 504c82 0 137 -64 137 -159
s-55 -159 -137 -159s-137 64 -137 159s55 159 137 159z" />
    <glyph glyph-name="Oslash" unicode="&#xd8;" horiz-adv-x="820" 
d="M720 591l-19 -19c50 -62 78 -140 78 -226c0 -199 -153 -360 -369 -360c-87 0 -164 26 -225 70l-26 -26c-6 -6 -15 -6 -21 1l-44 43c-5 6 -5 15 0 21l25 25c-50 61 -78 139 -78 225c0 199 153 360 369 360c87 0 164 -26 225 -70l20 20c6 7 15 7 21 1l44 -44
c6 -6 6 -15 0 -21zM290 291l184 183c-18 12 -40 19 -64 19c-77 0 -129 -70 -129 -148c0 -19 3 -37 9 -54zM530 401l-184 -184c18 -12 40 -19 64 -19c77 0 129 70 129 148c0 19 -3 38 -9 55z" />
    <glyph glyph-name="Otilde" unicode="&#xd5;" horiz-adv-x="763" 
d="M488 749c10 -4 15 -2 15 9v72c0 6 -2 11 -8 14c-71 41 -147 -45 -217 -13c-10 4 -15 2 -15 -9v-72c0 -6 2 -11 8 -14c71 -40 147 46 217 13zM381 -14c213 0 355 144 355 359c0 217 -142 361 -355 361s-355 -144 -355 -361c0 -215 142 -359 355 -359zM381 504
c82 0 137 -64 137 -159s-55 -159 -137 -159s-137 64 -137 159s55 159 137 159z" />
    <glyph glyph-name="OE" unicode="&#x152;" horiz-adv-x="927" 
d="M626 206h266c8 0 15 -6 15 -14v-177c0 -7 -7 -15 -15 -15h-530c-191 0 -346 154 -346 344c0 191 155 346 346 346h518c9 0 16 -7 16 -14v-177c0 -9 -7 -15 -16 -15h-254v-51h177c9 0 14 -7 13 -14l-18 -148c-1 -7 -8 -14 -17 -14h-155v-51zM420 484h-52
c-77 0 -129 -56 -129 -139s52 -139 129 -139h52v278z" />
    <glyph glyph-name="P" unicode="P" horiz-adv-x="572" 
d="M50 690h236c175 0 280 -95 280 -238s-105 -238 -280 -238h-41v-200c0 -7 -7 -14 -16 -14h-179c-7 0 -14 7 -14 14v661c0 8 7 15 14 15zM243 393h52c35 0 59 24 59 59s-24 59 -59 59h-52v-118z" />
    <glyph glyph-name="Q" unicode="Q" horiz-adv-x="769" 
d="M679 135l82 -66c9 -7 9 -14 2 -20l-123 -122c-8 -6 -14 -5 -20 2l-74 91c-48 -22 -104 -34 -165 -34c-213 0 -355 144 -355 359c0 217 142 361 355 361s355 -144 355 -361c0 -81 -20 -152 -57 -210zM467 307l44 -36c9 22 13 47 13 74c0 99 -57 165 -143 165
s-143 -66 -143 -165s57 -165 143 -165c11 0 21 1 31 3l-30 37c-6 7 -6 13 1 20l65 64c7 7 12 9 19 3z" />
    <glyph glyph-name="R" unicode="R" horiz-adv-x="609" 
d="M448 273l159 -257c5 -9 -2 -16 -11 -16h-214c-10 0 -19 7 -23 16l-104 218h-12v-220c0 -7 -7 -14 -16 -14h-176c-8 0 -15 7 -15 14v661c0 8 7 15 15 15h264c154 0 256 -90 256 -226c0 -79 -48 -159 -123 -191zM243 404h59c34 0 57 21 57 53s-23 53 -57 53h-59v-106z" />
    <glyph glyph-name="S" unicode="S" horiz-adv-x="535" 
d="M28 69l63 141c3 10 10 13 18 8c46 -26 101 -45 139 -48c32 0 53 15 53 38c0 59 -281 56 -281 274c0 134 101 223 253 223c71 0 161 -29 224 -72c8 -5 11 -13 8 -18l-63 -141c-3 -10 -10 -13 -18 -8c-49 28 -106 49 -141 52c-31 0 -51 -14 -51 -36c0 -59 283 -55 283 -275
c0 -133 -103 -222 -257 -222c-84 0 -172 26 -222 66c-8 6 -11 13 -8 18z" />
    <glyph glyph-name="T" unicode="T" horiz-adv-x="566" 
d="M14 690h538c9 0 15 -7 14 -14l-15 -152c-1 -8 -9 -14 -16 -14h-149v-496c0 -7 -6 -14 -14 -14h-177c-8 0 -15 7 -15 14v496h-166c-7 0 -14 6 -14 14v151c0 8 7 15 14 15z" />
    <glyph glyph-name="U" unicode="U" horiz-adv-x="612" 
d="M393 690h172c10 0 17 -8 17 -17v-417c0 -177 -95 -270 -276 -270c-179 0 -274 93 -276 270v417c0 9 8 17 17 17h172c10 0 17 -8 17 -17v-435c0 -46 26 -73 70 -73s70 27 70 72v436c0 9 8 17 17 17z" />
    <glyph glyph-name="Uacute" unicode="&#xda;" horiz-adv-x="612" 
d="M204 733l-19 41c-5 8 -3 17 4 22l180 106c6 5 16 2 20 -7l39 -73c4 -8 2 -16 -8 -20l-195 -80c-7 -4 -17 1 -21 11zM393 690h172c10 0 17 -8 17 -17v-417c0 -177 -95 -270 -276 -270c-179 0 -274 93 -276 270v417c0 9 8 17 17 17h172c10 0 17 -8 17 -17v-435
c0 -46 26 -73 70 -73s70 27 70 72v436c0 9 8 17 17 17z" />
    <glyph glyph-name="Ucircumflex" unicode="&#xdb;" horiz-adv-x="612" 
d="M150 784l142 82c8 4 20 4 27 0l142 -82c7 -3 11 -13 8 -20l-18 -43c-3 -7 -12 -11 -19 -9l-126 43l-127 -43c-7 -2 -16 2 -19 9l-17 43c-4 7 0 17 7 20zM393 690h172c10 0 17 -8 17 -17v-417c0 -177 -95 -270 -276 -270c-179 0 -274 93 -276 270v417c0 9 8 17 17 17h172
c10 0 17 -8 17 -17v-435c0 -46 26 -73 70 -73s70 27 70 72v436c0 9 8 17 17 17z" />
    <glyph glyph-name="Udieresis" unicode="&#xdc;" horiz-adv-x="612" 
d="M205 708c44 0 75 30 75 74c0 46 -31 76 -75 76c-45 0 -75 -30 -75 -76c0 -44 30 -74 75 -74zM408 708c44 0 75 30 75 74c0 46 -31 76 -75 76c-45 0 -75 -30 -75 -76c0 -44 30 -74 75 -74zM393 690h172c10 0 17 -8 17 -17v-417c0 -177 -95 -270 -276 -270
c-179 0 -274 93 -276 270v417c0 9 8 17 17 17h172c10 0 17 -8 17 -17v-435c0 -46 26 -73 70 -73s70 27 70 72v436c0 9 8 17 17 17z" />
    <glyph glyph-name="Ugrave" unicode="&#xd9;" horiz-adv-x="612" 
d="M427 774l-19 -41c-4 -10 -14 -15 -21 -11l-195 80c-10 4 -12 12 -8 20l39 73c4 9 14 12 20 7l180 -106c7 -5 9 -14 4 -22zM393 690h172c10 0 17 -8 17 -17v-417c0 -177 -95 -270 -276 -270c-179 0 -274 93 -276 270v417c0 9 8 17 17 17h172c10 0 17 -8 17 -17v-435
c0 -46 26 -73 70 -73s70 27 70 72v436c0 9 8 17 17 17z" />
    <glyph glyph-name="V" unicode="V" horiz-adv-x="716" 
d="M482 690h223c8 0 13 -7 10 -14l-229 -662c-2 -7 -10 -14 -18 -14h-220c-8 0 -16 7 -18 14l-229 662c-3 7 2 14 10 14h223c9 0 17 -7 19 -14l105 -411l105 411c2 7 10 14 19 14z" />
    <glyph glyph-name="W" unicode="W" horiz-adv-x="966" 
d="M739 690h224c10 0 15 -8 12 -17l-182 -657c-3 -9 -13 -16 -22 -16h-174c-9 0 -21 7 -23 16l-91 352l-91 -352c-2 -9 -14 -16 -23 -16h-174c-9 0 -19 7 -22 16l-182 657c-3 9 2 17 12 17h224c10 0 21 -8 23 -17l57 -299l77 299c3 10 15 17 27 17h144c12 0 24 -7 27 -17
l77 -299l57 299c2 9 13 17 23 17z" />
    <glyph glyph-name="X" unicode="X" horiz-adv-x="654" 
d="M473 345l179 -329c5 -9 -1 -16 -11 -16h-209c-9 0 -19 8 -23 16l-82 167l-82 -167c-4 -8 -14 -16 -23 -16h-209c-10 0 -16 7 -11 16l179 329l-179 329c-5 9 1 16 11 16h208c9 0 19 -8 23 -16l83 -177l83 177c4 8 14 16 23 16h208c10 0 16 -7 11 -16z" />
    <glyph glyph-name="Y" unicode="Y" horiz-adv-x="632" 
d="M421 690h208c9 0 16 -7 11 -16l-221 -398v-262c0 -7 -7 -14 -15 -14h-176c-8 0 -15 7 -15 14v262l-221 398c-5 9 2 16 11 16h208c10 0 19 -7 23 -16l82 -180l82 180c4 9 13 16 23 16z" />
    <glyph glyph-name="Yacute" unicode="&#xdd;" horiz-adv-x="632" 
d="M215 733l-19 41c-5 8 -3 17 4 22l180 106c6 5 16 2 20 -7l39 -73c4 -8 2 -16 -8 -20l-195 -80c-7 -4 -17 1 -21 11zM421 690h208c9 0 16 -7 11 -16l-221 -398v-262c0 -7 -7 -14 -15 -14h-176c-8 0 -15 7 -15 14v262l-221 398c-5 9 2 16 11 16h208c10 0 19 -7 23 -16
l82 -180l82 180c4 9 13 16 23 16z" />
    <glyph glyph-name="Ydieresis" unicode="&#x178;" horiz-adv-x="632" 
d="M216 708c-45 0 -75 30 -75 74c0 46 30 76 75 76c44 0 75 -30 75 -76c0 -44 -31 -74 -75 -74zM419 708c-45 0 -75 30 -75 74c0 46 30 76 75 76c44 0 75 -30 75 -76c0 -44 -31 -74 -75 -74zM421 690h208c9 0 16 -7 11 -16l-221 -398v-262c0 -7 -7 -14 -15 -14h-176
c-8 0 -15 7 -15 14v262l-221 398c-5 9 2 16 11 16h208c10 0 19 -7 23 -16l82 -180l82 180c4 9 13 16 23 16z" />
    <glyph glyph-name="Z" unicode="Z" horiz-adv-x="592" 
d="M330 180h227c9 0 15 -6 15 -14v-152c0 -7 -6 -14 -15 -14h-523c-8 0 -14 6 -14 14c0 3 4 13 10 25l227 471h-202c-7 0 -14 7 -14 15v150c0 8 7 15 14 15h495c9 0 15 -6 15 -15c0 -4 -4 -15 -10 -27z" />
    <glyph glyph-name="a" unicode="a" horiz-adv-x="582" 
d="M128 368l-57 120c-3 7 -1 14 5 19c57 36 137 57 217 57c173 0 253 -91 253 -290v-259c0 -8 -7 -15 -15 -15h-126c-8 0 -16 7 -16 15l-7 27c-33 -35 -99 -57 -172 -57c-115 0 -191 74 -190 184c1 98 77 163 190 163c58 0 110 -21 130 -53v42c0 43 -31 71 -77 71
c-39 0 -87 -13 -120 -32c-5 -3 -11 1 -15 8zM340 158v22c-17 17 -34 25 -55 25c-25 0 -42 -14 -42 -36s17 -36 42 -36c21 0 38 8 55 25z" />
    <glyph glyph-name="aacute" unicode="&#xe1;" horiz-adv-x="582" 
d="M204 588l-19 41c-5 8 -3 17 4 22l180 106c6 5 16 2 20 -7l39 -73c4 -8 2 -16 -8 -20l-195 -80c-7 -4 -17 1 -21 11zM128 368l-57 120c-3 7 -1 14 5 19c57 36 137 57 217 57c173 0 253 -91 253 -290v-259c0 -8 -7 -15 -15 -15h-126c-8 0 -16 7 -16 15l-7 27
c-33 -35 -99 -57 -172 -57c-115 0 -191 74 -190 184c1 98 77 163 190 163c58 0 110 -21 130 -53v42c0 43 -31 71 -77 71c-39 0 -87 -13 -120 -32c-5 -3 -11 1 -15 8zM340 158v22c-17 17 -34 25 -55 25c-25 0 -42 -14 -42 -36s17 -36 42 -36c21 0 38 8 55 25z" />
    <glyph glyph-name="acircumflex" unicode="&#xe2;" horiz-adv-x="572" 
d="M154 590l-17 43c-4 7 0 17 7 20l142 82c8 4 20 4 27 0l142 -82c7 -3 11 -13 8 -20l-18 -43c-3 -7 -12 -11 -19 -9l-126 43l-127 -43c-7 -2 -16 2 -19 9zM128 368l-57 120c-3 7 -1 14 5 19c57 36 137 57 217 57c173 0 253 -91 253 -290v-259c0 -8 -7 -15 -15 -15h-126
c-8 0 -16 7 -16 15l-7 27c-33 -35 -99 -57 -172 -57c-115 0 -191 74 -190 184c1 98 77 163 190 163c58 0 110 -21 130 -53v42c0 43 -31 71 -77 71c-39 0 -87 -13 -120 -32c-5 -3 -11 1 -15 8zM340 158v22c-17 17 -34 25 -55 25c-25 0 -42 -14 -42 -36s17 -36 42 -36
c21 0 38 8 55 25z" />
    <glyph glyph-name="adieresis" unicode="&#xe4;" horiz-adv-x="582" 
d="M203 582c-45 0 -75 30 -75 74c0 46 30 76 75 76c44 0 75 -30 75 -76c0 -44 -31 -74 -75 -74zM408 582c-45 0 -75 30 -75 74c0 46 30 76 75 76c44 0 75 -30 75 -76c0 -44 -31 -74 -75 -74zM128 368l-57 120c-3 7 -1 14 5 19c57 36 137 57 217 57c173 0 253 -91 253 -290
v-259c0 -8 -7 -15 -15 -15h-126c-8 0 -16 7 -16 15l-7 27c-33 -35 -99 -57 -172 -57c-115 0 -191 74 -190 184c1 98 77 163 190 163c58 0 110 -21 130 -53v42c0 43 -31 71 -77 71c-39 0 -87 -13 -120 -32c-5 -3 -11 1 -15 8zM340 158v22c-17 17 -34 25 -55 25
c-25 0 -42 -14 -42 -36s17 -36 42 -36c21 0 38 8 55 25z" />
    <glyph glyph-name="agrave" unicode="&#xe0;" horiz-adv-x="582" 
d="M387 577l-195 80c-10 4 -12 12 -8 20l39 73c4 9 14 12 20 7l180 -106c7 -5 9 -14 4 -22l-19 -41c-4 -10 -14 -15 -21 -11zM128 368l-57 120c-3 7 -1 14 5 19c57 36 137 57 217 57c173 0 253 -91 253 -290v-259c0 -8 -7 -15 -15 -15h-126c-8 0 -16 7 -16 15l-7 27
c-33 -35 -99 -57 -172 -57c-115 0 -191 74 -190 184c1 98 77 163 190 163c58 0 110 -21 130 -53v42c0 43 -31 71 -77 71c-39 0 -87 -13 -120 -32c-5 -3 -11 1 -15 8zM340 158v22c-17 17 -34 25 -55 25c-25 0 -42 -14 -42 -36s17 -36 42 -36c21 0 38 8 55 25z" />
    <glyph glyph-name="aring" unicode="&#xe5;" horiz-adv-x="582" 
d="M306 568c-51 0 -93 42 -93 92c0 52 42 94 93 94s93 -42 93 -94c0 -50 -42 -92 -93 -92zM306 697c-21 0 -37 -16 -37 -37c0 -19 16 -35 37 -35c20 0 38 16 38 35c0 21 -18 37 -38 37zM128 368l-57 120c-3 7 -1 14 5 19c57 36 137 57 217 57c173 0 253 -91 253 -290v-259
c0 -8 -7 -15 -15 -15h-126c-8 0 -16 7 -16 15l-7 27c-33 -35 -99 -57 -172 -57c-115 0 -191 74 -190 184c1 98 77 163 190 163c58 0 110 -21 130 -53v42c0 43 -31 71 -77 71c-39 0 -87 -13 -120 -32c-5 -3 -11 1 -15 8zM340 158v22c-17 17 -34 25 -55 25
c-25 0 -42 -14 -42 -36s17 -36 42 -36c21 0 38 8 55 25z" />
    <glyph glyph-name="ae" unicode="&#xe6;" horiz-adv-x="941" 
d="M124 368l-57 120c-3 7 -1 14 5 19c57 36 137 57 217 57c72 0 127 -16 168 -48c47 32 106 50 174 50c166 0 264 -107 264 -289c0 -15 -1 -30 -4 -45c-1 -8 -6 -12 -15 -12h-321s0 -63 84 -63c51 0 108 12 153 33c7 3 13 -1 15 -8l43 -124c2 -7 0 -11 -7 -15
c-53 -35 -130 -56 -207 -56c-69 0 -130 18 -177 50c-55 -33 -129 -52 -218 -52c-136 0 -226 74 -225 184c1 98 77 163 190 163c58 0 110 -21 130 -53v42c0 43 -31 71 -77 71c-39 0 -87 -13 -120 -32c-5 -3 -11 1 -15 8zM554 325h142c0 44 -27 73 -67 73
c-45 0 -75 -29 -75 -73zM336 158v22c-17 17 -34 25 -55 25c-25 0 -42 -14 -42 -36s17 -36 42 -36c21 0 38 8 55 25z" />
    <glyph glyph-name="b" unicode="b" horiz-adv-x="648" 
d="M242 711v-185c30 24 75 38 122 38c158 0 264 -116 264 -289c0 -174 -106 -290 -264 -290c-67 0 -131 26 -169 66l-15 -36c-4 -9 -9 -15 -16 -15h-113c-8 0 -15 7 -15 15v696c0 7 7 14 15 14h176c8 0 15 -7 15 -14zM242 337v-126c12 -33 44 -55 79 -55c55 0 92 48 92 120
c0 70 -37 116 -92 116c-35 0 -67 -22 -79 -55z" />
    <glyph glyph-name="c" unicode="c" horiz-adv-x="533" 
d="M454 180l58 -122c3 -5 0 -12 -6 -17c-54 -34 -128 -57 -185 -57c-181 0 -301 116 -301 290s120 290 301 290c57 0 131 -23 185 -57c6 -5 9 -12 6 -17l-58 -122c-4 -8 -11 -11 -18 -6c-25 18 -63 30 -96 30c-73 0 -121 -47 -121 -118s48 -118 121 -118c33 0 71 12 96 30
c7 5 14 2 18 -6z" />
    <glyph glyph-name="ccedilla" unicode="&#xe7;" horiz-adv-x="533" 
d="M454 180l58 -122c3 -5 0 -12 -6 -17c-54 -34 -128 -57 -185 -57c-181 0 -301 116 -301 290s120 290 301 290c57 0 131 -23 185 -57c6 -5 9 -12 6 -17l-58 -122c-4 -8 -11 -11 -18 -6c-25 18 -63 30 -96 30c-73 0 -121 -47 -121 -118s48 -118 121 -118c33 0 71 12 96 30
c7 5 14 2 18 -6zM268 -184l92 123c9 11 4 19 -10 19h-66c-9 0 -14 -2 -20 -6l-92 -73c-9 -7 -8 -15 2 -22l73 -45c7 -5 15 -3 21 4z" />
    <glyph glyph-name="d" unicode="d" horiz-adv-x="648" 
d="M421 725h176c8 0 15 -7 15 -14v-696c0 -8 -7 -15 -15 -15h-113c-7 0 -12 6 -16 15l-15 36c-38 -40 -102 -66 -169 -66c-158 0 -264 116 -264 290c0 173 106 289 264 289c47 0 92 -14 122 -38v185c0 7 7 14 15 14zM406 211v126c-12 33 -44 55 -79 55
c-55 0 -92 -46 -92 -116c0 -72 37 -120 92 -120c35 0 67 22 79 55z" />
    <glyph glyph-name="e" unicode="e" horiz-adv-x="594" 
d="M486 180l43 -124c2 -7 0 -11 -7 -15c-53 -35 -130 -56 -207 -56c-177 0 -295 116 -295 289c0 174 116 290 290 290c166 0 264 -107 264 -289c0 -15 -1 -30 -4 -45c-1 -8 -6 -12 -15 -12h-321s0 -63 84 -63c51 0 108 12 153 33c7 3 13 -1 15 -8zM233 323h142
c0 44 -27 73 -67 73c-45 0 -75 -29 -75 -73z" />
    <glyph glyph-name="eacute" unicode="&#xe9;" horiz-adv-x="594" 
d="M214 588l-19 41c-5 8 -3 17 4 22l180 106c6 5 16 2 20 -7l39 -73c4 -8 2 -16 -8 -20l-195 -80c-7 -4 -17 1 -21 11zM486 180l43 -124c2 -7 0 -11 -7 -15c-53 -35 -130 -56 -207 -56c-177 0 -295 116 -295 289c0 174 116 290 290 290c166 0 264 -107 264 -289
c0 -15 -1 -30 -4 -45c-1 -8 -6 -12 -15 -12h-321s0 -63 84 -63c51 0 108 12 153 33c7 3 13 -1 15 -8zM233 323h142c0 44 -27 73 -67 73c-45 0 -75 -29 -75 -73z" />
    <glyph glyph-name="ecircumflex" unicode="&#xea;" horiz-adv-x="594" 
d="M160 653l142 82c8 4 20 4 27 0l142 -82c7 -3 11 -13 8 -20l-18 -43c-3 -7 -12 -11 -19 -9l-126 43l-127 -43c-7 -2 -16 2 -19 9l-17 43c-4 7 0 17 7 20zM486 180l43 -124c2 -7 0 -11 -7 -15c-53 -35 -130 -56 -207 -56c-177 0 -295 116 -295 289c0 174 116 290 290 290
c166 0 264 -107 264 -289c0 -15 -1 -30 -4 -45c-1 -8 -6 -12 -15 -12h-321s0 -63 84 -63c51 0 108 12 153 33c7 3 13 -1 15 -8zM233 323h142c0 44 -27 73 -67 73c-45 0 -75 -29 -75 -73z" />
    <glyph glyph-name="edieresis" unicode="&#xeb;" horiz-adv-x="594" 
d="M213 582c44 0 75 30 75 74c0 46 -31 76 -75 76c-45 0 -75 -30 -75 -76c0 -44 30 -74 75 -74zM418 582c44 0 75 30 75 74c0 46 -31 76 -75 76c-45 0 -75 -30 -75 -76c0 -44 30 -74 75 -74zM486 180l43 -124c2 -7 0 -11 -7 -15c-53 -35 -130 -56 -207 -56
c-177 0 -295 116 -295 289c0 174 116 290 290 290c166 0 264 -107 264 -289c0 -15 -1 -30 -4 -45c-1 -8 -6 -12 -15 -12h-321s0 -63 84 -63c51 0 108 12 153 33c7 3 13 -1 15 -8zM233 323h142c0 44 -27 73 -67 73c-45 0 -75 -29 -75 -73z" />
    <glyph glyph-name="egrave" unicode="&#xe8;" horiz-adv-x="594" 
d="M437 629l-19 -41c-4 -10 -14 -15 -21 -11l-195 80c-10 4 -12 12 -8 20l39 73c4 9 14 12 20 7l180 -106c7 -5 9 -14 4 -22zM486 180l43 -124c2 -7 0 -11 -7 -15c-53 -35 -130 -56 -207 -56c-177 0 -295 116 -295 289c0 174 116 290 290 290c166 0 264 -107 264 -289
c0 -15 -1 -30 -4 -45c-1 -8 -6 -12 -15 -12h-321s0 -63 84 -63c51 0 108 12 153 33c7 3 13 -1 15 -8zM233 323h142c0 44 -27 73 -67 73c-45 0 -75 -29 -75 -73z" />
    <glyph glyph-name="f" unicode="f" horiz-adv-x="367" 
d="M284 550h68c9 0 15 -6 15 -14l-11 -97c-1 -8 -7 -15 -15 -15h-58v-410c0 -9 -5 -14 -14 -14h-178c-9 0 -14 5 -14 14v410h-53c-7 0 -14 6 -14 14v97c0 9 7 15 14 15h55c5 119 64 175 182 175h87c9 0 14 -5 14 -14v-97c0 -9 -5 -15 -14 -15c-38 0 -59 -15 -64 -49z" />
    <glyph glyph-name="g" unicode="g" horiz-adv-x="625" 
d="M383 43v29c-16 -32 -64 -53 -120 -53c-146 0 -243 105 -243 263c0 177 90 282 243 282c77 0 138 -21 164 -57l18 28c6 9 15 15 23 15h106c9 0 15 -6 15 -15v-484c0 -151 -137 -252 -307 -252c-99 0 -187 23 -236 63c-6 5 -8 12 -6 17l51 124c3 7 9 10 15 6
c43 -35 109 -56 176 -56c63 0 101 33 101 90zM383 231v101s-15 45 -69 45c-50 0 -79 -35 -79 -95s29 -96 79 -96c54 0 69 45 69 45z" />
    <glyph glyph-name="h" unicode="h" horiz-adv-x="592" 
d="M51 725h176c8 0 15 -7 15 -15v-202c27 35 75 56 129 56c120 0 191 -68 191 -184v-365c0 -8 -7 -15 -15 -15h-176c-8 0 -15 7 -14 15v314c0 40 -18 63 -49 63c-57 0 -66 -56 -66 -56v-321c0 -8 -7 -15 -15 -15h-176c-8 0 -15 7 -15 15v695c0 8 7 15 15 15z" />
    <glyph glyph-name="i" unicode="i" horiz-adv-x="280" 
d="M140 770c66 0 110 -41 110 -103c0 -59 -44 -99 -110 -99s-110 40 -110 99c0 62 44 103 110 103zM53 550h176c8 0 15 -7 15 -14v-521c0 -8 -7 -15 -15 -15h-176c-8 0 -15 7 -15 15v521c0 7 7 14 15 14z" />
    <glyph glyph-name="dotlessi" unicode="&#x131;" horiz-adv-x="278" 
d="M227 549h-176c-8 0 -15 -7 -15 -14v-520c0 -8 7 -15 15 -15h176c8 0 15 7 15 15v520c0 7 -7 14 -15 14z" />
    <glyph glyph-name="iacute" unicode="&#xed;" horiz-adv-x="278" 
d="M37 588l-19 41c-5 8 -3 17 4 22l180 106c6 5 16 2 20 -7l39 -73c4 -8 2 -16 -8 -20l-195 -80c-7 -4 -17 1 -21 11zM227 549h-176c-8 0 -15 -7 -15 -14v-520c0 -8 7 -15 15 -15h176c8 0 15 7 15 15v520c0 7 -7 14 -15 14z" />
    <glyph glyph-name="icircumflex" unicode="&#xee;" horiz-adv-x="278" 
d="M-17 653l142 82c8 4 20 4 27 0l142 -82c7 -3 11 -13 8 -20l-18 -43c-3 -7 -12 -11 -19 -9l-126 43l-127 -43c-7 -2 -16 2 -19 9l-17 43c-4 7 0 17 7 20zM227 549h-176c-8 0 -15 -7 -15 -14v-520c0 -8 7 -15 15 -15h176c8 0 15 7 15 15v520c0 7 -7 14 -15 14z" />
    <glyph glyph-name="idieresis" unicode="&#xef;" horiz-adv-x="278" 
d="M36 582c44 0 75 30 75 74c0 46 -31 76 -75 76c-45 0 -75 -30 -75 -76c0 -44 30 -74 75 -74zM241 582c44 0 75 30 75 74c0 46 -31 76 -75 76c-45 0 -75 -30 -75 -76c0 -44 30 -74 75 -74zM227 549h-176c-8 0 -15 -7 -15 -14v-520c0 -8 7 -15 15 -15h176c8 0 15 7 15 15
v520c0 7 -7 14 -15 14z" />
    <glyph glyph-name="igrave" unicode="&#xec;" horiz-adv-x="278" 
d="M260 629l-19 -41c-4 -10 -14 -15 -21 -11l-195 80c-10 4 -12 12 -8 20l39 73c4 9 14 12 20 7l180 -106c7 -5 9 -14 4 -22zM227 549h-176c-8 0 -15 -7 -15 -14v-520c0 -8 7 -15 15 -15h176c8 0 15 7 15 15v520c0 7 -7 14 -15 14z" />
    <glyph glyph-name="j" unicode="j" horiz-adv-x="280" 
d="M140 770c66 0 110 -41 110 -103c0 -59 -44 -99 -110 -99s-110 40 -110 99c0 62 44 103 110 103zM53 551h176c8 0 15 -7 15 -15v-473c0 -123 -63 -224 -170 -272c-8 -4 -14 -3 -19 5l-81 127c-5 7 -2 15 6 23c36 34 58 76 58 114v476c0 8 7 15 15 15z" />
    <glyph glyph-name="k" unicode="k" horiz-adv-x="610" 
d="M51 725h176c8 0 15 -7 15 -14v-332l93 159c4 7 14 12 23 12h200c8 0 11 -5 7 -12l-148 -245l181 -281c5 -7 1 -12 -7 -12h-213c-7 0 -17 5 -21 12l-115 198v-195c0 -8 -7 -15 -15 -15h-176c-8 0 -15 7 -15 15v696c0 7 7 14 15 14z" />
    <glyph glyph-name="l" unicode="l" horiz-adv-x="278" 
d="M51 725h176c8 0 15 -7 15 -14v-696c0 -8 -7 -15 -15 -15h-176c-8 0 -15 7 -15 15v696c0 7 7 14 15 14z" />
    <glyph glyph-name="m" unicode="m" horiz-adv-x="913" 
d="M178 540l13 -32c32 35 90 56 157 56c72 0 127 -29 149 -79c39 50 103 79 173 79c134 0 213 -82 213 -220v-330c0 -9 -5 -14 -14 -14h-178c-9 0 -14 5 -14 14v300c-2 40 -19 63 -49 63c-57 0 -66 -56 -65 -56v-307c0 -9 -5 -14 -14 -14h-178c-9 0 -14 5 -14 14v300
c0 43 -19 63 -49 63c-57 0 -66 -56 -66 -56v-307c0 -9 -5 -14 -14 -14h-178c-9 0 -14 5 -14 14v522c0 9 5 14 14 14h112c7 0 13 -3 16 -10z" />
    <glyph glyph-name="n" unicode="n" horiz-adv-x="592" 
d="M178 540l13 -32c32 35 100 56 161 56c136 0 210 -63 210 -219v-330c0 -8 -7 -15 -15 -15h-176c-8 0 -15 7 -14 15v299c0 40 -18 63 -49 63c-57 0 -66 -56 -66 -56v-306c0 -8 -7 -15 -15 -15h-176c-8 0 -15 7 -15 15v521c0 9 5 14 14 14h112c7 0 13 -3 16 -10z" />
    <glyph glyph-name="ntilde" unicode="&#xf1;" horiz-adv-x="592" 
d="M163 688v-72c0 -6 2 -11 8 -14c71 -40 147 46 217 13c10 -4 15 -2 15 9v72c0 6 -2 11 -8 14c-71 41 -147 -45 -217 -13c-10 4 -15 2 -15 -9zM178 540l13 -32c32 35 100 56 161 56c136 0 210 -63 210 -219v-330c0 -8 -7 -15 -15 -15h-176c-8 0 -15 7 -14 15v299
c0 40 -18 63 -49 63c-57 0 -66 -56 -66 -56v-306c0 -8 -7 -15 -15 -15h-176c-8 0 -15 7 -15 15v521c0 9 5 14 14 14h112c7 0 13 -3 16 -10z" />
    <glyph glyph-name="o" unicode="o" horiz-adv-x="628" 
d="M314 564c176 0 294 -116 294 -289c0 -174 -118 -290 -294 -290s-294 116 -294 289c0 174 118 290 294 290zM314 384c-59 0 -99 -44 -99 -110c0 -65 40 -109 99 -109s99 44 99 110c0 65 -40 109 -99 109z" />
    <glyph glyph-name="oacute" unicode="&#xf3;" horiz-adv-x="628" 
d="M212 588l-19 41c-5 8 -3 17 4 22l180 106c6 5 16 2 20 -7l39 -73c4 -8 2 -16 -8 -20l-195 -80c-7 -4 -17 1 -21 11zM314 564c176 0 294 -116 294 -289c0 -174 -118 -290 -294 -290s-294 116 -294 289c0 174 118 290 294 290zM314 384c-59 0 -99 -44 -99 -110
c0 -65 40 -109 99 -109s99 44 99 110c0 65 -40 109 -99 109z" />
    <glyph glyph-name="ocircumflex" unicode="&#xf4;" horiz-adv-x="628" 
d="M158 653l142 82c8 4 20 4 27 0l142 -82c7 -3 11 -13 8 -20l-18 -43c-3 -7 -12 -11 -19 -9l-126 43l-127 -43c-7 -2 -16 2 -19 9l-17 43c-4 7 0 17 7 20zM314 564c176 0 294 -116 294 -289c0 -174 -118 -290 -294 -290s-294 116 -294 289c0 174 118 290 294 290zM314 384
c-59 0 -99 -44 -99 -110c0 -65 40 -109 99 -109s99 44 99 110c0 65 -40 109 -99 109z" />
    <glyph glyph-name="odieresis" unicode="&#xf6;" horiz-adv-x="628" 
d="M211 582c44 0 75 30 75 74c0 46 -31 76 -75 76c-45 0 -75 -30 -75 -76c0 -44 30 -74 75 -74zM416 582c44 0 75 30 75 74c0 46 -31 76 -75 76c-45 0 -75 -30 -75 -76c0 -44 30 -74 75 -74zM314 564c176 0 294 -116 294 -289c0 -174 -118 -290 -294 -290s-294 116 -294 289
c0 174 118 290 294 290zM314 384c-59 0 -99 -44 -99 -110c0 -65 40 -109 99 -109s99 44 99 110c0 65 -40 109 -99 109z" />
    <glyph glyph-name="ograve" unicode="&#xf2;" horiz-adv-x="628" 
d="M435 629l-19 -41c-4 -10 -14 -15 -21 -11l-195 80c-10 4 -12 12 -8 20l39 73c4 9 14 12 20 7l180 -106c7 -5 9 -14 4 -22zM314 564c176 0 294 -116 294 -289c0 -174 -118 -290 -294 -290s-294 116 -294 289c0 174 118 290 294 290zM314 384c-59 0 -99 -44 -99 -110
c0 -65 40 -109 99 -109s99 44 99 110c0 65 -40 109 -99 109z" />
    <glyph glyph-name="oslash" unicode="&#xf8;" horiz-adv-x="659" 
d="M594 479l-27 -27c38 -48 59 -109 59 -176c0 -160 -123 -290 -297 -290c-68 0 -127 19 -175 53l-34 -34c-6 -6 -15 -6 -21 1l-44 43c-5 6 -5 15 0 21l33 33c-36 48 -56 107 -56 172c0 160 123 290 297 290c66 0 124 -18 172 -50l28 28c6 7 15 7 21 1l44 -44
c6 -6 6 -15 0 -21zM243 258l113 112c-8 3 -17 5 -27 5c-52 0 -87 -47 -87 -100c0 -6 0 -12 1 -17zM414 299l-117 -117c10 -4 21 -6 32 -6c52 0 87 47 87 100c0 8 -1 15 -2 23z" />
    <glyph glyph-name="otilde" unicode="&#xf5;" horiz-adv-x="628" 
d="M196 688v-72c0 -6 2 -11 8 -14c71 -40 147 46 217 13c10 -4 15 -2 15 9v72c0 6 -2 11 -8 14c-71 41 -147 -45 -217 -13c-10 4 -15 2 -15 -9zM314 564c176 0 294 -116 294 -289c0 -174 -118 -290 -294 -290s-294 116 -294 289c0 174 118 290 294 290zM314 384
c-59 0 -99 -44 -99 -110c0 -65 40 -109 99 -109s99 44 99 110c0 65 -40 109 -99 109z" />
    <glyph glyph-name="oe" unicode="&#x153;" horiz-adv-x="995" 
d="M866 182l43 -124c2 -7 0 -11 -7 -15c-53 -35 -130 -56 -207 -56s-144 22 -193 62c-51 -40 -115 -63 -189 -63c-174 0 -297 129 -297 289s123 290 297 290c73 0 137 -23 186 -61c49 40 115 62 191 62c166 0 264 -107 264 -289c0 -15 -1 -30 -4 -45c-1 -8 -6 -12 -15 -12
h-321s0 -63 84 -63c51 0 108 12 153 33c7 3 13 -1 15 -8zM613 325h142c0 44 -27 73 -67 73c-45 0 -75 -29 -75 -73zM313 176c52 0 87 40 87 100c0 59 -35 99 -87 99s-87 -40 -87 -100c0 -59 35 -99 87 -99z" />
    <glyph glyph-name="p" unicode="p" horiz-adv-x="648" 
d="M180 535l15 -36c38 40 102 66 169 66c158 0 264 -116 264 -290c0 -173 -106 -289 -264 -289c-47 0 -92 14 -122 38v-196c0 -7 -7 -14 -15 -14h-176c-8 0 -15 7 -15 14v707c0 8 7 15 15 15h113c7 0 12 -6 16 -15zM242 339v-126c12 -33 44 -55 79 -55c55 0 92 46 92 116
c0 72 -37 120 -92 120c-35 0 -67 -22 -79 -55z" />
    <glyph glyph-name="thorn" unicode="&#xfe;" horiz-adv-x="648" 
d="M242 711v-176c35 19 78 30 122 30c158 0 264 -116 264 -290c0 -173 -106 -289 -264 -289c-47 0 -92 14 -122 38v-196c0 -7 -7 -14 -15 -14h-176c-8 0 -15 7 -15 14v883c0 7 7 14 15 14h176c8 0 15 -7 15 -14zM242 339v-126c12 -33 44 -55 79 -55c55 0 92 46 92 116
c0 72 -37 120 -92 120c-35 0 -67 -22 -79 -55z" />
    <glyph glyph-name="q" unicode="q" horiz-adv-x="648" 
d="M484 549h113c8 0 15 -7 15 -15v-707c0 -7 -7 -14 -15 -14h-176c-8 0 -15 7 -15 14v196c-30 -24 -75 -38 -122 -38c-158 0 -264 116 -264 289c0 174 106 290 264 290c67 0 131 -26 169 -66l15 36c4 9 9 15 16 15zM406 212v126c-12 33 -44 55 -79 55
c-55 0 -92 -48 -92 -120c0 -70 37 -116 92 -116c35 0 67 22 79 55z" />
    <glyph glyph-name="r" unicode="r" horiz-adv-x="387" 
d="M327 550h26c8 0 14 -6 14 -14v-130c0 -8 -6 -14 -14 -14h-26c-38 0 -72 -17 -85 -42v-335c0 -8 -7 -15 -15 -15h-176c-8 0 -15 7 -15 15v520c0 7 7 14 15 14h113c8 0 13 -7 16 -15l15 -44c30 37 79 60 132 60z" />
    <glyph glyph-name="s" unicode="s" horiz-adv-x="474" 
d="M25 58l51 116c2 6 8 7 13 4c39 -23 81 -41 115 -41c21 -2 35 10 35 25c0 51 -219 35 -219 223c0 107 91 179 227 179c65 0 143 -23 196 -57c5 -4 8 -9 6 -14l-51 -118c-2 -6 -8 -7 -13 -4c-39 25 -81 41 -115 41c-21 2 -35 -8 -35 -24c0 -53 219 -34 219 -224
c0 -107 -88 -179 -221 -179c-65 0 -146 23 -202 57c-5 5 -8 10 -6 16z" />
    <glyph glyph-name="germandbls" unicode="&#xdf;" horiz-adv-x="608" 
d="M50 438v26c0 136 107 226 264 226c155 0 246 -78 246 -195c0 -72 -31 -124 -81 -140c65 -17 106 -81 106 -171c0 -110 -80 -184 -200 -184h-80c-8 0 -14 6 -14 14v163c0 8 6 14 14 14h28c19 0 34 15 34 33c0 19 -15 34 -34 34h-28c-8 0 -14 6 -14 14v152c0 8 6 14 14 14
h16c16 0 29 13 29 28c0 18 -13 29 -36 29c-43 0 -58 -17 -58 -45v-436c0 -8 -6 -14 -14 -14h-178c-8 0 -14 7 -14 14v244h-26c-8 0 -14 6 -14 14v152c0 8 6 14 14 14h26z" />
    <glyph glyph-name="t" unicode="t" horiz-adv-x="387" 
d="M287 550h75c9 0 15 -6 15 -14l-11 -97c-1 -8 -7 -15 -15 -15h-64v-409c0 -8 -7 -15 -15 -15h-176c-8 0 -15 7 -15 15v409h-57c-7 0 -14 6 -14 14v97c0 9 7 15 14 15h57v109c0 7 7 13 15 14l176 17c8 1 15 -7 15 -14v-126z" />
    <glyph glyph-name="u" unicode="u" horiz-adv-x="592" 
d="M365 550h176c8 0 15 -7 15 -15v-521c0 -7 -7 -14 -15 -14h-113c-8 0 -13 7 -16 15l-15 36c-36 -40 -95 -66 -160 -66c-130 0 -207 83 -207 219v331c0 8 7 15 15 15h176c8 0 15 -7 15 -15v-306c0 -34 21 -57 53 -57c39 0 61 32 61 32v331c0 8 7 15 15 15z" />
    <glyph glyph-name="uacute" unicode="&#xfa;" horiz-adv-x="592" 
d="M187 588l-19 41c-5 8 -3 17 4 22l180 106c6 5 16 2 20 -7l39 -73c4 -8 2 -16 -8 -20l-195 -80c-7 -4 -17 1 -21 11zM365 550h176c8 0 15 -7 15 -15v-521c0 -7 -7 -14 -15 -14h-113c-8 0 -13 7 -16 15l-15 36c-36 -40 -95 -66 -160 -66c-130 0 -207 83 -207 219v331
c0 8 7 15 15 15h176c8 0 15 -7 15 -15v-306c0 -34 21 -57 53 -57c39 0 61 32 61 32v331c0 8 7 15 15 15z" />
    <glyph glyph-name="ucircumflex" unicode="&#xfb;" horiz-adv-x="592" 
d="M133 653l142 82c8 4 20 4 27 0l142 -82c7 -3 11 -13 8 -20l-18 -43c-3 -7 -12 -11 -19 -9l-126 43l-127 -43c-7 -2 -16 2 -19 9l-17 43c-4 7 0 17 7 20zM365 550h176c8 0 15 -7 15 -15v-521c0 -7 -7 -14 -15 -14h-113c-8 0 -13 7 -16 15l-15 36c-36 -40 -95 -66 -160 -66
c-130 0 -207 83 -207 219v331c0 8 7 15 15 15h176c8 0 15 -7 15 -15v-306c0 -34 21 -57 53 -57c39 0 61 32 61 32v331c0 8 7 15 15 15z" />
    <glyph glyph-name="udieresis" unicode="&#xfc;" horiz-adv-x="592" 
d="M186 582c44 0 75 30 75 74c0 46 -31 76 -75 76c-45 0 -75 -30 -75 -76c0 -44 30 -74 75 -74zM391 582c44 0 75 30 75 74c0 46 -31 76 -75 76c-45 0 -75 -30 -75 -76c0 -44 30 -74 75 -74zM365 550h176c8 0 15 -7 15 -15v-521c0 -7 -7 -14 -15 -14h-113c-8 0 -13 7 -16 15
l-15 36c-36 -40 -95 -66 -160 -66c-130 0 -207 83 -207 219v331c0 8 7 15 15 15h176c8 0 15 -7 15 -15v-306c0 -34 21 -57 53 -57c39 0 61 32 61 32v331c0 8 7 15 15 15z" />
    <glyph glyph-name="ugrave" unicode="&#xf9;" horiz-adv-x="592" 
d="M410 629l-19 -41c-4 -10 -14 -15 -21 -11l-195 80c-10 4 -12 12 -8 20l39 73c4 9 14 12 20 7l180 -106c7 -5 9 -14 4 -22zM365 550h176c8 0 15 -7 15 -15v-521c0 -7 -7 -14 -15 -14h-113c-8 0 -13 7 -16 15l-15 36c-36 -40 -95 -66 -160 -66c-130 0 -207 83 -207 219v331
c0 8 7 15 15 15h176c8 0 15 -7 15 -15v-306c0 -34 21 -57 53 -57c39 0 61 32 61 32v331c0 8 7 15 15 15z" />
    <glyph glyph-name="v" unicode="v" horiz-adv-x="597" 
d="M396 550h189c9 0 13 -7 11 -14l-177 -522c-3 -7 -12 -14 -20 -14h-202c-8 0 -16 7 -18 14l-178 522c-3 7 2 14 10 14h188c9 0 16 -6 19 -14l80 -289l80 289c2 9 11 14 18 14z" />
    <glyph glyph-name="w" unicode="w" horiz-adv-x="868" 
d="M655 550h202c8 0 13 -7 10 -14l-163 -522c-2 -7 -10 -14 -18 -14h-155c-8 0 -17 7 -20 14l-77 266l-77 -266c-3 -7 -12 -14 -20 -14h-155c-8 0 -16 7 -18 14l-163 522c-3 7 2 14 10 14h202c9 0 17 -6 19 -14l52 -219l54 219c2 10 11 14 18 14h156c15 0 16 -4 18 -14
l54 -219l52 219c2 8 10 14 19 14z" />
    <glyph glyph-name="x" unicode="x" horiz-adv-x="573" 
d="M373 550h189c7 0 12 -6 9 -14l-139 -254l134 -268c4 -8 -2 -14 -9 -14h-194c-9 0 -16 5 -18 13l-59 129l-59 -129c-2 -8 -9 -13 -18 -13h-194c-7 0 -13 6 -9 14l134 268l-139 254c-3 8 2 14 9 14h189c9 0 14 -6 18 -13l69 -141l69 141c4 7 9 13 18 13z" />
    <glyph glyph-name="y" unicode="y" horiz-adv-x="611" 
d="M402 550h197c9 0 13 -7 11 -14l-171 -536c-48 -150 -131 -201 -259 -201c-69 0 -137 22 -170 54c-5 5 -6 12 -5 17l56 113c3 7 8 9 12 6c33 -23 69 -36 98 -36c51 0 77 23 91 81h-82c-10 0 -16 7 -18 14l-161 488c-3 7 2 14 10 14h201c9 0 16 -6 19 -14l77 -314l76 314
c2 9 11 14 18 14z" />
    <glyph glyph-name="yacute" unicode="&#xfd;" horiz-adv-x="611" 
d="M194 588l-19 41c-5 8 -3 17 4 22l180 106c6 5 16 2 20 -7l39 -73c4 -8 2 -16 -8 -20l-195 -80c-7 -4 -17 1 -21 11zM402 550h197c9 0 13 -7 11 -14l-171 -536c-48 -150 -131 -201 -259 -201c-69 0 -137 22 -170 54c-5 5 -6 12 -5 17l56 113c3 7 8 9 12 6
c33 -23 69 -36 98 -36c51 0 77 23 91 81h-82c-10 0 -16 7 -18 14l-161 488c-3 7 2 14 10 14h201c9 0 16 -6 19 -14l77 -314l76 314c2 9 11 14 18 14z" />
    <glyph glyph-name="ydieresis" unicode="&#xff;" horiz-adv-x="611" 
d="M193 582c-45 0 -75 30 -75 74c0 46 30 76 75 76c44 0 75 -30 75 -76c0 -44 -31 -74 -75 -74zM398 582c-45 0 -75 30 -75 74c0 46 30 76 75 76c44 0 75 -30 75 -76c0 -44 -31 -74 -75 -74zM402 550h197c9 0 13 -7 11 -14l-171 -536c-48 -150 -131 -201 -259 -201
c-69 0 -137 22 -170 54c-5 5 -6 12 -5 17l56 113c3 7 8 9 12 6c33 -23 69 -36 98 -36c51 0 77 23 91 81h-82c-10 0 -16 7 -18 14l-161 488c-3 7 2 14 10 14h201c9 0 16 -6 19 -14l77 -314l76 314c2 9 11 14 18 14z" />
    <glyph glyph-name="z" unicode="z" horiz-adv-x="527" 
d="M64 550h425c15 0 22 -14 15 -26l-195 -334h177c9 0 15 -6 15 -14v-162c0 -7 -6 -14 -15 -14h-448c-15 0 -23 14 -15 27l195 329h-154c-7 0 -14 7 -14 15v164c0 8 7 15 14 15z" />
    <glyph glyph-name="y.alt" horiz-adv-x="597" 
d="M355 534v-303s-10 -45 -62 -45c-46 0 -67 25 -67 78v270c0 8 -7 15 -15 15h-176c-8 0 -15 -7 -15 -15v-303c0 -145 68 -212 215 -212c56 0 104 21 120 53v-29c0 -57 -27 -90 -90 -90c-62 0 -124 19 -168 50c-6 4 -12 1 -15 -6l-51 -124c-2 -5 0 -12 6 -17
c49 -36 133 -57 228 -57c170 0 296 101 296 252v483c0 8 -7 15 -15 15h-176c-8 0 -15 -7 -15 -15z" />
    <glyph glyph-name="uni0049004A" horiz-adv-x="569" 
d="M242 675v-424c0 -8 -7 -15 -15 -15h-176c-8 0 -15 7 -15 15v424c0 8 7 15 15 15h176c6 0 11 -4 14 -9c1 -2 1 -4 1 -6zM549 675v-425c0 -166 -105 -264 -282 -264c-78 0 -156 17 -210 45c-8 5 -13 11 -11 17l34 127c3 11 10 15 17 11c33 -20 91 -34 146 -34
c68 0 99 40 100 126v397c0 8 7 15 15 15h176c8 0 15 -7 15 -15z" />
    <glyph glyph-name="uni00540054" horiz-adv-x="960" 
d="M386 484v-470c0 -7 -6 -14 -14 -14h-177c-8 0 -15 7 -15 14v470h-166c-7 0 -14 6 -14 14v177c0 8 7 15 14 15h932c9 0 15 -7 14 -14l-19 -178c-1 -8 -9 -14 -16 -14h-145v-470c0 -7 -6 -14 -14 -14h-177c-8 0 -15 7 -15 14v470h-188z" />
    <glyph glyph-name="uni00660074" horiz-adv-x="637" 
d="M575 549h65c9 0 15 -6 15 -14l-11 -97c-1 -8 -7 -15 -15 -15h-54v-408c0 -8 -7 -15 -15 -15h-176c-8 0 -15 7 -15 15v408h-115v-408c0 -9 -5 -14 -14 -14h-178c-9 0 -14 5 -14 14v408h-57c-7 0 -14 6 -14 14v97c0 9 7 15 14 15h57c0 119 64 176 163 176h108
c9 0 14 -5 14 -14v-97c0 -9 -5 -15 -14 -15c-43 0 -65 -15 -65 -50h115v110c0 7 7 13 15 14l176 17c8 1 15 -7 15 -14v-127z" />
    <glyph glyph-name="uni0069006A" horiz-adv-x="589" 
d="M138 565c66 0 110 40 110 99c0 62 -44 103 -110 103s-110 -41 -110 -103c0 -59 44 -99 110 -99zM444 565c66 0 110 40 110 99c0 62 -44 103 -110 103s-110 -41 -110 -103c0 -59 44 -99 110 -99zM241 534v-501c0 -8 -7 -15 -15 -15h-176c-8 0 -15 7 -15 15v501
c0 8 7 15 15 15h176c6 0 11 -4 14 -9c1 -2 1 -4 1 -6zM338 57v477c1 8 8 15 16 15h176c8 0 15 -7 15 -15v-502c0 -166 -105 -264 -282 -264c-66 0 -136 19 -188 51c-9 5 -13 12 -11 17l35 121c3 11 9 15 17 11c33 -20 84 -34 128 -34c70 0 94 32 94 123z" />
    <glyph glyph-name="uni00740066" horiz-adv-x="660" 
d="M580 549h65c9 0 15 -6 15 -14l-11 -97c-1 -8 -7 -15 -15 -15h-54v-408c0 -9 -5 -14 -14 -14h-178c-9 0 -14 5 -14 14v408h-115v-408c0 -8 -7 -15 -15 -15h-176c-8 0 -15 7 -15 15v408h-57c-7 0 -14 6 -14 14v97c0 9 7 15 14 15h57v110c0 7 7 13 15 14l176 17
c8 1 15 -7 15 -14v-127h115c0 119 64 176 163 176h108c9 0 14 -5 14 -14v-97c0 -9 -5 -15 -14 -15c-43 0 -65 -15 -65 -50z" />
    <glyph glyph-name="uni00740074" horiz-adv-x="642" 
d="M580 549h65c9 0 15 -6 15 -14l-11 -97c-1 -8 -7 -15 -15 -15h-54v-408c0 -8 -7 -15 -15 -15h-176c-8 0 -15 7 -15 15v408h-115v-408c0 -8 -7 -15 -15 -15h-176c-8 0 -15 7 -15 15v408h-57c-7 0 -14 6 -14 14v97c0 9 7 15 14 15h57v110c0 7 7 13 15 14l176 17
c8 1 15 -7 15 -14v-127h115v110c0 7 7 13 15 14l176 17c8 1 15 -7 15 -14v-127z" />
    <glyph glyph-name="zero" unicode="0" horiz-adv-x="643" 
d="M646 345c0 216 -130 360 -324 360c-195 0 -325 -144 -325 -360s130 -360 325 -360c194 0 324 144 324 360zM434 345c0 -108 -45 -180 -112 -180c-68 0 -113 72 -113 180s45 180 113 180c67 0 112 -72 112 -180z" />
    <glyph glyph-name="one" unicode="1" horiz-adv-x="330" 
d="M88 508h-69c-7 0 -14 4 -13 12v123c0 8 6 14 16 15l258 40c9 1 14 -3 14 -10v-673c0 -8 -6 -15 -14 -15h-177c-9 0 -15 7 -15 15v493z" />
    <glyph glyph-name="two" unicode="2" horiz-adv-x="518" 
d="M487 0h-455c-9 0 -15 6 -15 14v111c0 7 4 17 10 24c154 159 235 274 235 337c0 25 -18 39 -49 39s-74 -16 -114 -44c-7 -4 -15 1 -17 8l-53 121c-3 7 0 11 8 17c68 49 149 78 219 78c140 0 223 -73 223 -196c0 -99 -51 -215 -162 -329h170c8 0 15 -6 15 -14v-152
c0 -8 -7 -14 -15 -14z" />
    <glyph glyph-name="three" unicode="3" horiz-adv-x="570" 
d="M117 503l-48 129c-3 8 -1 12 8 17c65 35 147 56 220 56c144 0 229 -75 229 -203c0 -55 -25 -104 -67 -131c57 -37 91 -99 91 -168c0 -136 -95 -217 -256 -217c-90 0 -183 27 -250 72c-4 2 -10 9 -7 16l49 139c2 7 13 10 18 8c57 -28 114 -45 155 -45c53 0 80 21 80 46
c0 29 -33 49 -83 49h-99c-9 0 -16 7 -17 13l-14 140c-1 6 4 13 13 13h117c43 0 72 18 72 45c0 21 -24 39 -69 39c-24 0 -70 -10 -124 -26c-7 -2 -15 3 -18 8z" />
    <glyph glyph-name="four" unicode="4" horiz-adv-x="573" 
d="M518 291h30c8 0 15 -6 15 -14v-142c0 -9 -7 -15 -15 -15h-30v-105c0 -8 -6 -15 -14 -15h-177c-9 0 -15 7 -15 15v105h-264c-14 0 -22 10 -22 24v117c0 10 2 17 7 26l212 393c3 6 9 10 15 10h244c8 0 14 -6 14 -13v-386zM312 487l-89 -196h89v196z" />
    <glyph glyph-name="five" unicode="5" horiz-adv-x="558" 
d="M66 210l-49 -139c-3 -7 3 -14 7 -16c77 -46 164 -69 237 -69c177 0 281 91 281 244c0 137 -79 218 -213 218c-33 -1 -75 -9 -100 -22l9 84h229c8 0 15 6 16 14l18 153c0 8 -6 15 -14 15h-407c-8 0 -14 -6 -15 -15l-28 -390c-1 -9 5 -15 15 -15h201c53 0 80 -20 80 -46
c0 -33 -29 -52 -79 -52c-60 0 -123 16 -170 44c-3 2 -15 -1 -18 -8z" />
    <glyph glyph-name="six" unicode="6" horiz-adv-x="609" 
d="M525 633l-49 -133c-2 -5 -10 -12 -18 -8c-45 20 -86 31 -120 31c-82 0 -123 -55 -123 -137c31 34 79 56 142 56c140 0 222 -79 222 -212c0 -146 -102 -244 -255 -244c-194 0 -308 134 -308 360c0 216 124 360 309 360c68 0 134 -19 192 -56c7 -5 11 -9 8 -17zM314 282
c-38 0 -69 -16 -83 -44c0 -41 29 -66 79 -66c44 0 73 23 73 57c0 32 -28 53 -69 53z" />
    <glyph glyph-name="seven" unicode="7" horiz-adv-x="495" 
d="M241 510l-211 -440c-3 -7 0 -16 8 -19l158 -80c8 -3 17 0 20 7l266 558c4 8 7 20 7 28v111c0 8 -7 15 -14 15h-453c-9 0 -16 -7 -16 -14v-152c0 -8 5 -14 13 -14h222z" />
    <glyph glyph-name="eight" unicode="8" horiz-adv-x="593" 
d="M483 359c59 -34 96 -95 96 -164c0 -125 -110 -209 -274 -209c-165 0 -275 81 -275 202c0 66 36 125 93 158c-46 25 -77 84 -77 156c0 122 104 203 260 203s260 -81 260 -203c0 -70 -33 -124 -83 -143zM306 532c-39 0 -65 -22 -65 -55c0 -21 23 -42 57 -53
c44 2 73 23 73 53c0 33 -26 55 -65 55zM304 155c48 0 80 24 80 59c0 25 -31 50 -78 64c-49 0 -81 -26 -81 -64c0 -35 32 -59 79 -59z" />
    <glyph glyph-name="nine" unicode="9" horiz-adv-x="608" 
d="M84 59l49 133c2 5 10 12 18 8c45 -20 86 -31 120 -31c82 0 123 55 123 137c-31 -34 -79 -56 -142 -56c-140 0 -222 79 -222 212c0 146 102 243 255 243c194 0 308 -133 308 -359c0 -216 -124 -360 -309 -360c-68 0 -134 19 -192 56c-7 5 -11 9 -8 17zM295 417
c38 0 69 16 83 44c0 41 -29 66 -79 66c-44 0 -73 -23 -73 -57c0 -32 28 -53 69 -53z" />
    <glyph glyph-name="asterisk" unicode="*" horiz-adv-x="311" 
d="M187 619h71c7 0 13 -6 13 -13v-36c0 -8 -5 -14 -14 -14h-52l40 -57c4 -6 2 -15 -4 -19l-29 -20c-7 -5 -15 -4 -20 3l-36 53l-37 -53c-5 -7 -13 -8 -20 -3l-29 20c-6 4 -8 13 -4 19l40 57h-52c-8 0 -14 6 -14 14v36c0 7 6 13 13 13h71v58c0 7 6 13 13 13h36
c9 0 14 -6 14 -14v-57z" />
    <glyph glyph-name="backslash" unicode="\" horiz-adv-x="379" 
d="M108 733h-95c-10 0 -15 -7 -12 -16l248 -801c3 -9 13 -16 22 -16h95c10 0 15 7 12 16l-248 801c-3 9 -13 16 -22 16z" />
    <glyph glyph-name="colon" unicode=":" horiz-adv-x="222" 
d="M111 281c53 0 88 33 88 82c0 50 -35 84 -88 84s-88 -34 -88 -84c0 -49 35 -82 88 -82zM111 0c53 0 88 33 88 82c0 50 -35 84 -88 84s-88 -34 -88 -84c0 -49 35 -82 88 -82z" />
    <glyph glyph-name="comma" unicode="," horiz-adv-x="206" 
d="M144 -82l60 148c6 15 -3 20 -20 20h-77c-7 0 -16 -8 -23 -16l-81 -117c-6 -12 -3 -25 12 -27l105 -26c10 -2 18 2 24 18z" />
    <glyph glyph-name="exclam" unicode="!" horiz-adv-x="352" 
d="M103 168h145c8 0 15 7 15 14l16 493c0 8 -7 15 -15 15h-176c-8 0 -15 -7 -15 -15l15 -493c0 -7 7 -14 15 -14zM176 152c-85 0 -110 -46 -110 -82c0 -38 25 -84 110 -84c86 0 110 46 110 84c0 36 -24 82 -110 82z" />
    <glyph glyph-name="exclamdown" unicode="&#xa1;" horiz-adv-x="352" 
d="M176 398c85 0 110 46 110 82c0 38 -25 84 -110 84c-86 0 -110 -46 -110 -84c0 -36 24 -82 110 -82zM249 382h-145c-8 0 -15 -7 -15 -14l-16 -493c0 -8 7 -15 15 -15h176c8 0 15 7 15 15l-15 493c0 7 -7 14 -15 14z" />
    <glyph glyph-name="numbersign" unicode="#" horiz-adv-x="529" 
d="M413 251l-10 -34h77c7 0 13 -7 13 -14v-95c0 -8 -6 -14 -13 -14h-116l-25 -82c-2 -6 -10 -12 -17 -12h-98c-7 0 -11 6 -9 12l26 82h-39l-26 -82c-2 -6 -10 -12 -17 -12h-97c-7 0 -11 6 -9 12l25 82h-29c-8 0 -13 6 -13 14v95c0 7 5 14 13 14h67l11 34h-78
c-8 0 -13 6 -13 13v96c0 7 5 15 13 15h116l25 82c2 6 10 12 17 12h98c7 0 11 -6 9 -12l-25 -82h38l26 82c2 6 10 12 17 12h97c8 0 12 -6 10 -12l-26 -82h29c7 0 13 -8 13 -15v-96c0 -7 -6 -13 -13 -13h-67zM289 251h-38l-11 -34h39z" />
    <glyph glyph-name="period" unicode="." horiz-adv-x="222" 
d="M111 -14c53 0 88 33 88 82c0 50 -35 84 -88 84s-88 -34 -88 -84c0 -49 35 -82 88 -82z" />
    <glyph glyph-name="question" unicode="?" horiz-adv-x="420" 
d="M67 174v45c0 159 133 205 133 278c0 25 -27 39 -44 39c-37 0 -79 -13 -104 -21c-5 -1 -12 2 -13 7c0 0 -35 130 -38 136c-2 6 0 11 7 13c54 18 107 34 169 34c159 0 228 -83 228 -195c0 -154 -141 -188 -141 -291v-45c0 -7 -6 -12 -14 -12h-167c-9 0 -15 5 -16 12z
M166 152c-85 0 -110 -46 -110 -82c0 -38 25 -84 110 -84c86 0 110 46 110 84c0 36 -24 82 -110 82z" />
    <glyph glyph-name="questiondown" unicode="&#xbf;" horiz-adv-x="465" 
d="M279 398c85 0 110 46 110 82c0 38 -25 84 -110 84c-86 0 -110 -46 -110 -84c0 -36 24 -82 110 -82zM378 376v-45c0 -159 -133 -205 -133 -278c0 -25 27 -39 44 -39c37 0 79 13 104 21c5 1 12 -2 13 -7c0 0 35 -130 38 -136c2 -6 0 -11 -7 -13c-54 -18 -107 -34 -169 -34
c-159 0 -228 83 -228 195c0 154 141 188 141 291v45c0 7 6 12 14 12h167c9 0 15 -5 16 -12z" />
    <glyph glyph-name="quotedbl" unicode="&#x22;" horiz-adv-x="369" 
d="M28 665l-12 -159c-1 -9 7 -12 20 -9l67 14c11 2 20 12 25 27l44 134c2 11 -3 18 -14 18h-106c-14 0 -23 -9 -24 -25zM209 665l-12 -159c-1 -9 7 -12 20 -9l67 14c11 2 20 12 25 27l44 134c2 11 -3 18 -14 18h-106c-14 0 -23 -9 -24 -25z" />
    <glyph glyph-name="quotesingle" unicode="'" horiz-adv-x="188" 
d="M28 665l-12 -159c-1 -9 7 -12 20 -9l67 14c11 2 20 12 25 27l44 134c2 11 -3 18 -14 18h-106c-14 0 -23 -9 -24 -25z" />
    <glyph glyph-name="semicolon" unicode=";" horiz-adv-x="222" 
d="M111 281c53 0 88 33 88 82c0 50 -35 84 -88 84s-88 -34 -88 -84c0 -49 35 -82 88 -82zM108 -82l60 148c6 15 -3 20 -20 20h-77c-7 0 -16 -8 -23 -16l-81 -117c-6 -12 -3 -25 12 -27l105 -26c10 -2 18 2 24 18z" />
    <glyph glyph-name="slash" unicode="/" horiz-adv-x="379" 
d="M366 733h-95c-9 0 -19 -7 -22 -16l-248 -801c-3 -9 2 -16 12 -16h95c9 0 19 7 22 16l248 801c3 9 -2 16 -12 16z" />
    <glyph glyph-name="underscore" unicode="_" horiz-adv-x="508" 
d="M468 112v-97c0 -9 -7 -15 -15 -15h-399c-7 0 -14 6 -14 15v97c0 8 7 14 14 14h399c8 0 15 -6 15 -14z" />
    <glyph glyph-name="bracketleft" unicode="[" horiz-adv-x="293" 
d="M244 -100h-210c-8 0 -14 6 -14 13v807c0 7 6 13 14 13h210c7 0 13 -6 13 -14v-94c0 -8 -6 -14 -13 -14h-102v-589h102c7 0 13 -6 13 -14v-94c0 -8 -6 -14 -13 -14z" />
    <glyph glyph-name="bracketright" unicode="]" horiz-adv-x="293" 
d="M259 -100h-210c-7 0 -13 6 -13 14v94c0 8 6 14 13 14h102v589h-102c-7 0 -13 6 -13 14v94c0 8 6 14 13 14h210c8 0 14 -6 14 -13v-807c0 -7 -6 -13 -14 -13z" />
    <glyph glyph-name="parenleft" unicode="(" horiz-adv-x="304" 
d="M259 -21l-63 -64c-8 -9 -20 -9 -28 0c-103 122 -148 258 -148 401c0 149 49 284 148 401c8 9 20 10 28 1l67 -69c6 -7 7 -17 1 -24c-77 -94 -114 -202 -114 -310c0 -106 35 -242 107 -308c9 -8 10 -19 2 -28z" />
    <glyph glyph-name="parenright" unicode=")" horiz-adv-x="304" 
d="M108 -85l-63 64c-8 9 -7 20 2 28c72 66 107 202 107 308c0 108 -37 216 -114 310c-6 7 -5 17 1 24l67 69c8 9 20 8 28 -1c99 -117 148 -252 148 -401c0 -143 -45 -279 -148 -401c-8 -9 -20 -9 -28 0z" />
    <glyph glyph-name="hyphen" unicode="-" horiz-adv-x="396" 
d="M360 332v-110c0 -9 -7 -15 -15 -15h-295c-7 0 -14 6 -14 15v110c0 8 7 14 14 14h295c8 0 15 -6 15 -14z" />
    <glyph glyph-name="space" unicode=" " horiz-adv-x="130" 
 />
    <glyph glyph-name="cent" unicode="&#xa2;" 
d="M490 257l50 -129c2 -5 -1 -10 -7 -15c-41 -26 -91 -44 -141 -52v-78c0 -7 -6 -14 -15 -14h-62c-8 0 -14 7 -14 14v74c-160 14 -265 126 -265 288c0 163 105 275 265 289v73c0 9 4 15 14 15h62c9 0 15 -7 15 -15v-77c50 -8 100 -26 141 -52c6 -5 9 -10 7 -15l-50 -129
c-3 -8 -9 -11 -15 -8c-37 22 -75 32 -122 32c-54 0 -104 -45 -102 -113c-2 -67 48 -112 102 -112c47 0 85 10 122 32c6 3 12 0 15 -8z" />
    <glyph glyph-name="dollar" unicode="$" horiz-adv-x="535" 
d="M505 615l-63 -141c-3 -10 -10 -13 -18 -8c-49 28 -106 49 -141 52c-31 0 -51 -14 -51 -36c0 -59 283 -55 283 -275c0 -116 -79 -199 -202 -218v-38c0 -8 -6 -14 -15 -14h-62c-8 0 -14 6 -14 14v36c-72 6 -143 30 -186 64c-8 6 -11 13 -8 18l63 141c3 10 10 13 18 8
c46 -26 101 -45 139 -48c32 0 53 15 53 38c0 59 -281 56 -281 274c0 118 79 202 202 219v42c0 8 6 15 14 15h62c9 0 15 -7 15 -15v-41c63 -8 132 -34 184 -69c8 -5 11 -13 8 -18z" />
    <glyph glyph-name="Euro" unicode="&#x20ac;" horiz-adv-x="604" 
d="M533 208l50 -146c2 -7 -1 -14 -9 -18c-58 -36 -136 -58 -210 -58c-181 0 -310 112 -338 286h-46c-9 0 -16 6 -16 15v33c0 8 7 14 16 14h40v12v13h-40c-9 0 -16 6 -16 15v33c0 8 7 14 16 14h46c28 174 157 285 338 285c74 0 152 -22 210 -58c8 -4 11 -11 9 -18l-50 -146
c-4 -9 -11 -12 -19 -8c-40 23 -91 35 -134 35c-64 0 -112 -34 -135 -90h182c9 0 16 -6 16 -14v-33c0 -9 -7 -15 -16 -15h-195v-13v-12h195c9 0 16 -6 16 -14v-33c0 -9 -7 -15 -16 -15h-182c22 -57 71 -91 135 -91c43 0 94 12 134 35c8 4 15 1 19 -8z" />
    <glyph glyph-name="sterling" unicode="&#xa3;" horiz-adv-x="478" 
d="M266 158h193c7 0 13 -6 13 -14l-19 -130c-1 -7 -8 -14 -16 -14h-406c-7 0 -14 7 -14 14v129c0 8 6 15 14 15c36 0 69 36 69 85l-1 13h-66c-9 0 -16 6 -16 15v33c0 8 7 14 16 14h47c-25 48 -64 92 -64 183c0 107 72 204 215 204c60 0 132 -22 179 -54c5 -3 7 -9 5 -14
l-43 -135c-2 -9 -8 -11 -16 -5c-23 17 -64 28 -87 28c-45 0 -59 -31 -59 -54c0 -48 44 -97 71 -153h94c9 0 16 -6 16 -14v-33c0 -9 -7 -15 -16 -15h-76l1 -13c0 -30 -13 -62 -34 -85z" />
    <glyph glyph-name="yen" unicode="&#xa5;" horiz-adv-x="659" 
d="M434 690h208c9 0 16 -7 11 -16l-208 -374h64c9 0 16 -7 16 -14v-39c0 -9 -7 -16 -16 -16h-77v-31h77c9 0 16 -6 16 -14v-39c0 -9 -7 -15 -16 -15h-77v-118c0 -7 -7 -14 -15 -14h-176c-8 0 -15 7 -15 14v118h-80c-8 0 -15 6 -15 15v39c0 8 7 14 15 14h80v31h-80
c-8 0 -15 7 -15 16v39c0 7 7 14 15 14h67l-208 374c-5 9 2 16 11 16h208c10 0 19 -7 23 -16l82 -180l82 180c4 9 13 16 23 16z" />
    <glyph glyph-name="equal" unicode="=" horiz-adv-x="346" 
d="M310 419v-97c0 -9 -7 -15 -15 -14h-244c-7 0 -14 6 -14 15v97c0 8 7 14 14 13h244c8 0 15 -6 15 -14zM309 233v-97c0 -9 -7 -15 -15 -14h-244c-7 0 -14 6 -14 15v97c0 8 7 14 14 13h244c8 0 15 -6 15 -14z" />
    <glyph glyph-name="greater" unicode="&#x3e;" horiz-adv-x="292" 
d="M113 277l-68 -68c-6 -6 -6 -15 -1 -20l69 -69c6 -6 15 -6 21 0l147 147c6 6 6 14 0 20l-148 148c-5 5 -14 5 -20 -1l-69 -69c-5 -5 -5 -14 0 -19z" />
    <glyph glyph-name="less" unicode="&#x3c;" horiz-adv-x="292" 
d="M179 277l69 69c5 5 5 14 0 19l-69 69c-6 6 -15 6 -20 1l-148 -148c-6 -6 -6 -14 0 -20l147 -147c6 -6 15 -6 21 0l69 69c5 5 5 14 -1 20z" />
    <glyph glyph-name="multiply" unicode="&#xd7;" horiz-adv-x="404" 
d="M360 189l-69 -69c-6 -6 -15 -6 -21 0l-226 226c-5 5 -5 14 1 20l69 69c5 5 14 5 19 0l226 -226c6 -6 6 -15 1 -20z" />
    <glyph glyph-name="plus" unicode="+" horiz-adv-x="428" 
d="M277 340h96c8 0 15 -6 15 -14v-97c0 -9 -7 -15 -15 -15h-96v-96c0 -8 -6 -15 -14 -15h-97c-9 0 -15 7 -15 15v96h-97c-7 0 -14 6 -14 15v97c0 8 7 14 14 14h97v97c0 7 6 14 15 14h97c8 0 14 -7 14 -14v-97z" />
    <glyph glyph-name="ampersand" unicode="&#x26;" horiz-adv-x="758" 
d="M539 271v-85c0 -33 21 -55 52 -55h51c5 0 10 -5 12 -13v-102c0 -10 -6 -16 -15 -16h-97c-32 0 -68 7 -101 20c-48 -21 -108 -34 -168 -34c-152 0 -253 89 -253 222c0 68 34 127 87 158c-39 26 -63 75 -63 133c0 124 94 206 235 206c156 0 260 -86 260 -215v-53h115
c9 0 15 -6 15 -14l-11 -137c-1 -9 -7 -15 -15 -15h-104zM343 437v43c0 31 -23 52 -58 52c-33 0 -55 -18 -55 -45c0 -30 22 -50 55 -50h58zM343 271h-58c-40 0 -66 -20 -66 -51c0 -35 26 -58 66 -58c35 0 58 18 58 44v65z" />
    <glyph glyph-name="asciicircum" unicode="^" horiz-adv-x="355" 
d="M178 558l67 -68c7 -6 15 -6 20 -1l69 69c6 6 7 15 0 21l-146 146c-6 7 -15 7 -21 0l-148 -147c-5 -5 -4 -14 2 -20l69 -69c5 -5 13 -5 18 0z" />
    <glyph glyph-name="bar" unicode="|" horiz-adv-x="177" 
d="M126 733h-75c-8 0 -15 -7 -15 -14v-936c0 -8 7 -15 15 -15h75c8 0 15 7 15 15v936c0 7 -7 14 -15 14z" />
    <glyph glyph-name="copyright" unicode="&#xa9;" horiz-adv-x="780" 
d="M514 401v61c0 22 19 41 42 41s42 -19 42 -41v-61c0 -1 -2 -3 -3 -3h-18c-2 0 -3 2 -3 3v20l-36 -8v-12c0 -1 -2 -3 -3 -3h-18c-2 0 -3 2 -3 3zM348 455v-46c0 -1 -1 -2 -1 -3c0 0 -15 -9 -37 -9c-29 0 -53 23 -53 52c0 30 24 53 53 53c13 0 26 -5 36 -13c1 -2 2 -3 0 -4
l-11 -13c-1 -1 -3 -1 -4 0c-6 5 -12 7 -19 7c-16 0 -29 -13 -29 -30c0 -16 13 -29 29 -29c4 0 8 1 13 3v9l-10 -2c-2 0 -3 1 -3 3v15c0 2 1 3 3 3l30 7c1 0 3 -1 3 -3zM83 501h44c18 0 32 -14 32 -32c0 -13 -9 -24 -21 -29l21 -38c1 -2 0 -4 -3 -4h-20c-1 0 -2 1 -2 1
l-17 35l-14 -4v-29c0 -2 -1 -3 -2 -3h-18c-2 0 -3 1 -3 3v97c0 2 1 3 3 3zM182 501h60c2 0 3 -1 3 -3v-16c0 -1 -1 -3 -3 -3h-40v-18h17c2 0 4 -1 4 -3v-17c0 -2 -2 -3 -4 -3h-17v-18h40c2 0 3 -2 3 -3v-16c0 -2 -1 -3 -3 -3h-60c-2 0 -3 1 -3 3v97c0 2 1 3 3 3zM429 501h18
c2 0 3 -1 3 -3v-60c0 -23 -19 -41 -42 -41s-42 18 -42 41v60c0 2 2 3 3 3h18c2 0 3 -1 3 -3v-59c0 -11 8 -19 18 -19c11 0 19 8 19 19v59c0 2 1 3 2 3zM678 440l21 -38c1 -2 0 -4 -2 -4h-20c-1 0 -2 1 -2 1l-18 35l-13 -4v-29c0 -2 -1 -3 -3 -3h-17c-2 0 -3 1 -3 3v97
c0 2 1 3 3 3h43c18 0 33 -14 33 -32c0 -13 -9 -23 -22 -29zM609 370v-189c0 -2 -1 -3 -3 -3h-174c-2 0 -3 1 -3 3v143c0 2 1 3 3 3h17c2 0 3 -1 3 -3v-124h135v152h-115c-2 0 -3 1 -3 2v144c0 1 1 2 3 2h17c1 0 3 -1 3 -2v-124h114c2 0 3 -2 3 -4zM103 450l22 7
c6 1 11 6 11 12s-5 11 -11 11h-22v-30zM644 450l22 7c6 2 11 6 11 12s-5 11 -11 11h-22v-30zM574 443v18c0 10 -8 18 -18 18c-11 0 -18 -8 -18 -18v-27zM175 374h274c1 0 3 -2 3 -4v-15c0 -2 -2 -3 -3 -3h-256v-152h215c1 0 2 -1 2 -3v-127h36c2 0 3 -2 3 -3v-17
c0 -1 -1 -2 -3 -2h-56c-2 0 -3 1 -3 2v128h-213c-2 0 -3 1 -3 3v189c0 2 1 3 3 3c0 1 0 1 1 1zM360 329c-29 0 -52 -24 -52 -53c0 -30 23 -53 52 -53c30 0 53 23 53 53c0 29 -23 53 -53 53zM221 327h44c17 0 32 -14 32 -32c0 -8 -3 -15 -8 -20c4 -5 7 -12 7 -19
c0 -18 -15 -32 -32 -32h-43c-2 0 -3 1 -3 3v97c0 2 1 3 3 3zM472 324v-97c0 -1 1 -3 3 -3h36c28 0 51 23 51 52c0 28 -23 51 -51 51h-36c-2 0 -3 -1 -3 -3zM241 306v-30l22 7c6 1 11 6 11 12s-5 11 -11 11h-22zM495 246v60h14c17 0 29 -13 29 -30s-12 -30 -29 -30h-14z
M360 246c-16 0 -29 14 -29 30s13 29 29 29c17 0 30 -13 30 -29s-13 -30 -30 -30zM241 245h21c6 0 11 5 11 11c0 3 -1 6 -3 8l-29 -8v-11zM592 124l12 13c1 1 1 3 -1 4c-10 9 -21 14 -36 14c-29 0 -53 -24 -53 -55c0 -30 24 -54 53 -54c14 0 26 5 37 15c1 1 1 3 0 4l-12 12
c-1 1 -3 1 -4 1c-5 -5 -13 -8 -20 -8c-17 0 -29 14 -29 31s12 31 29 31c7 0 15 -3 20 -8c1 -1 3 -1 4 0zM229 132v-82c0 -1 1 -2 2 -2h18c1 0 3 1 3 2v82h21c1 0 3 1 3 3v16c0 1 -2 3 -3 3h-65c-2 0 -3 -2 -3 -3v-16c0 -2 1 -3 3 -3h21zM171 150v-100c0 -1 1 -3 3 -3h18
c1 0 2 2 2 3v100c0 2 -1 3 -2 3h-18c-2 0 -3 -1 -3 -3zM282 50v62c0 23 19 41 42 41s42 -18 42 -41v-62c0 -1 -1 -2 -3 -2h-18c-1 0 -3 1 -3 2v22l-36 -9v-13c0 -1 -1 -2 -3 -2h-18c-1 0 -3 1 -3 2zM470 151v-101c0 -1 1 -2 3 -2h18c1 0 2 1 2 2v101c0 1 -1 2 -2 2h-18
c-2 0 -3 -1 -3 -2zM342 93v18c0 10 -7 19 -18 19c-10 0 -18 -9 -18 -19v-26z" />
    <glyph glyph-name="acute" unicode="&#xb4;" 
d="M187 588l-19 41c-5 8 -3 17 4 22l180 106c6 5 16 2 20 -7l39 -73c4 -8 2 -16 -8 -20l-195 -80c-7 -4 -17 1 -21 11z" />
    <glyph glyph-name="cedilla" unicode="&#xb8;" 
d="M298 -184l92 123c9 11 4 19 -10 19h-66c-9 0 -14 -2 -20 -6l-92 -73c-9 -7 -8 -15 2 -22l73 -45c7 -5 15 -3 21 4z" />
    <glyph glyph-name="circumflex" unicode="&#x2c6;" 
d="M147 653l142 82c8 4 20 4 27 0l142 -82c7 -3 11 -13 8 -20l-18 -43c-3 -7 -12 -11 -19 -9l-126 43l-127 -43c-7 -2 -16 2 -19 9l-17 43c-4 7 0 17 7 20z" />
    <glyph glyph-name="dieresis" unicode="&#xa8;" horiz-adv-x="554" 
d="M174 582c44 0 75 30 75 74c0 46 -31 76 -75 76c-45 0 -75 -30 -75 -76c0 -44 30 -74 75 -74zM379 582c44 0 75 30 75 74c0 46 -31 76 -75 76c-45 0 -75 -30 -75 -76c0 -44 30 -74 75 -74z" />
    <glyph glyph-name="grave" unicode="`" 
d="M424 629l-19 -41c-4 -10 -14 -15 -21 -11l-195 80c-10 4 -12 12 -8 20l39 73c4 9 14 12 20 7l180 -106c7 -5 9 -14 4 -22z" />
    <glyph glyph-name="ring" unicode="&#x2da;" 
d="M330 754c51 0 93 -42 93 -94c0 -50 -42 -92 -93 -92s-93 42 -93 92c0 52 42 94 93 94zM330 697c-21 0 -37 -16 -37 -37c0 -19 16 -35 37 -35c20 0 38 16 38 35c0 21 -18 37 -38 37z" />
    <glyph glyph-name="tilde" unicode="&#x2dc;" 
d="M159 688v-72c0 -6 2 -11 8 -14c71 -40 147 46 217 13c10 -4 15 -2 15 9v72c0 6 -2 11 -8 14c-71 41 -147 -45 -217 -13c-10 4 -15 2 -15 -9z" />
    <glyph glyph-name="acute.case" 
d="M187 733l-19 41c-5 8 -3 17 4 22l180 106c6 5 16 2 20 -7l39 -73c4 -8 2 -16 -8 -20l-195 -80c-7 -4 -17 1 -21 11z" />
    <glyph glyph-name="circumflex.case" 
d="M147 792l142 82c8 4 20 4 27 0l142 -82c7 -3 11 -13 8 -20l-18 -43c-3 -7 -12 -11 -19 -9l-126 43l-127 -43c-7 -2 -16 2 -19 9l-17 43c-4 7 0 17 7 20z" />
    <glyph glyph-name="dieresis.case" horiz-adv-x="553" 
d="M175 708c44 0 75 30 75 74c0 46 -31 76 -75 76c-45 0 -75 -30 -75 -76c0 -44 30 -74 75 -74zM378 708c44 0 75 30 75 74c0 46 -31 76 -75 76c-45 0 -75 -30 -75 -76c0 -44 30 -74 75 -74z" />
    <glyph glyph-name="grave.case" 
d="M436 774l-19 -41c-4 -10 -14 -15 -21 -11l-195 80c-10 4 -12 12 -8 20l39 73c4 9 14 12 20 7l180 -106c7 -5 9 -14 4 -22z" />
    <glyph glyph-name="ring.case" 
d="M330 874c51 0 93 -42 93 -94c0 -50 -42 -92 -93 -92s-93 42 -93 92c0 52 42 94 93 94zM330 817c-21 0 -37 -16 -37 -37c0 -19 16 -35 37 -35c20 0 38 16 38 35c0 21 -18 37 -38 37z" />
    <glyph glyph-name="tilde.case" 
d="M384 749c10 -4 15 -2 15 9v72c0 6 -2 11 -8 14c-71 41 -147 -45 -217 -13c-10 4 -15 2 -15 -9v-72c0 -6 2 -11 8 -14c71 -40 147 46 217 13z" />
    <glyph glyph-name="Jacute" 
d="M226 733l-19 41c-5 8 -3 17 4 22l180 106c6 5 16 2 20 -7l39 -73c4 -8 2 -16 -8 -20l-195 -80c-7 -4 -17 1 -21 11zM223 238v437c3 8 10 15 18 15h176c8 0 15 -7 12 -15v-425c0 -186 -119 -264 -257 -264c-44 0 -103 9 -154 22c-10 3 -13 7 -11 17l32 153c2 8 9 13 17 11
c34 -8 85 -17 112 -17c44 0 54 27 55 66z" />
    <glyph glyph-name="jacute" horiz-adv-x="307" 
d="M45 588l-19 41c-5 8 -3 17 4 22l180 106c6 5 16 2 20 -7l39 -73c4 -8 2 -16 -8 -20l-195 -80c-7 -4 -17 1 -21 11zM42 20v514c3 8 10 15 18 15h176c8 0 15 -7 12 -15v-502c0 -186 -119 -264 -257 -264c-44 0 -103 9 -154 22c-10 3 -13 7 -11 17l32 153c2 8 9 13 17 11
c34 -8 85 -17 112 -17c44 0 54 27 55 66z" />
    </font>
</defs>
</svg>
